<?xml version="1.0" encoding="UTF-8" standalone="no"?>
<svg xmlns:dc="http://purl.org/dc/elements/1.1/" 
   xmlns:cc="http://creativecommons.org/ns#" 
   xmlns:rdf="http://www.w3.org/1999/02/22-rdf-syntax-ns#" 
   xmlns:svg="http://www.w3.org/2000/svg" 
   xmlns="http://www.w3.org/2000/svg" 
   xmlns:xlink="http://www.w3.org/1999/xlink" 
   xmlns:sodipodi="http://sodipodi.sourceforge.net/DTD/sodipodi-0.dtd" 
   xmlns:inkscape="http://www.inkscape.org/namespaces/inkscape" inkscape:version="1.0 (4035a4f, 2020-05-01)" sodipodi:docname="CRASH_HOUR.svg" id="svg1269" version="1.1" width="865.33685pt" viewBox="0 0 865.33685 593.16425" stroke-linejoin="round" height="593.16425pt">
   <metadata id="metadata1273">
      <rdf:RDF>
         <cc:Work rdf:about="">
            <dc:format>image/svg+xml</dc:format>
            <dc:type rdf:resource="http://purl.org/dc/dcmitype/StillImage" />
         </cc:Work>
      </rdf:RDF>
   </metadata>
   <sodipodi:namedview inkscape:current-layer="g1083" inkscape:window-maximized="0" inkscape:window-y="23" inkscape:window-x="0" inkscape:cy="597.71323" inkscape:cx="762.99092" inkscape:zoom="1.66984" showguides="false" showgrid="false" id="namedview1271" inkscape:window-height="1155" inkscape:window-width="1920" inkscape:pageshadow="2" inkscape:pageopacity="0" guidetolerance="10" gridtolerance="10" objecttolerance="10" borderopacity="1" bordercolor="#666666" pagecolor="#ffffff" />
   <defs id="defs1071" stroke-linejoin="round">
      <clipPath stroke-linejoin="round" id="a">
         <path id="path1054" d="M 135,86.4 H 972 V 630 H 135 Z" />
      </clipPath>
      <path stroke-linejoin="round" d="m 7.90625,0 v 71.578125 h 51.765625 v -8.4375 H 17.390625 V 41.21875 h 39.59375 V 32.8125 H 17.390625 V 8.453125 h 43.9375 V 0 Z" id="b" />
      <path stroke-linejoin="round" d="m 4.5,23 8.921875,0.78125 q 0.640625,-5.375 2.953125,-8.8125 2.328125,-3.4375 7.203125,-5.5625 4.890625,-2.125 11,-2.125 5.40625,0 9.5625,1.609375 4.15625,1.609375 6.171875,4.40625 2.03125,2.8125 2.03125,6.140625 0,3.359375 -1.953125,5.875 -1.953125,2.515625 -6.4375,4.234375 -2.890625,1.125 -12.75,3.484375 -9.859375,2.375 -13.8125,4.46875 -5.140625,2.6875 -7.65625,6.65625 -2.5,3.984375 -2.5,8.921875 0,5.421875 3.0625,10.125 3.078125,4.71875 8.984375,7.15625 5.921875,2.4375 13.140625,2.4375 7.953125,0 14.03125,-2.5625 6.09375,-2.5625 9.359375,-7.546875 3.265625,-4.96875 3.515625,-11.265625 L 50.25,50.734375 q -0.734375,6.78125 -4.96875,10.25 -4.21875,3.46875 -12.46875,3.46875 -8.59375,0 -12.53125,-3.15625 -3.921875,-3.140625 -3.921875,-7.578125 0,-3.859375 2.78125,-6.359375 2.734375,-2.484375 14.28125,-5.09375 11.546875,-2.609375 15.84375,-4.5625 6.25,-2.890625 9.21875,-7.3125 2.984375,-4.40625 2.984375,-10.171875 0,-5.71875 -3.265625,-10.78125 -3.265625,-5.046875 -9.40625,-7.859375 -6.125,-2.796875 -13.78125,-2.796875 -9.71875,0 -16.296875,2.828125 Q 12.15625,4.4375 8.421875,10.125 4.6875,15.828125 4.5,23 Z" id="c" />
      <path stroke-linejoin="round" d="m 8.015625,0 v 71.578125 h 9.46875 V 42.1875 H 54.6875 v 29.390625 h 9.46875 V 0 H 54.6875 V 33.734375 H 17.484375 V 0 Z" id="d" />
      <path stroke-linejoin="round" d="M 7.421875,0 V 71.578125 H 21.6875 L 38.625,20.90625 q 2.34375,-7.09375 3.421875,-10.609375 1.21875,3.90625 3.796875,11.484375 l 17.140625,49.796875 h 12.75 V 0 h -9.125 V 59.90625 L 45.796875,0 H 37.25 L 16.546875,60.9375 V 0 Z" id="e" />
      <path stroke-linejoin="round" d="M 6.390625,0 V 71.578125 H 15.1875 V 0 Z" id="f" />
      <path stroke-linejoin="round" d="m 42.09375,16.703125 9.078125,-1.125 Q 49.03125,7.625 43.21875,3.21875 37.40625,-1.171875 28.375,-1.171875 q -11.375,0 -18.046875,7 -6.671875,7.015625 -6.671875,19.65625 0,13.09375 6.734375,20.3125 6.75,7.234375 17.484375,7.234375 10.40625,0 17,-7.078125 6.59375,-7.078125 6.59375,-19.921875 0,-0.78125 -0.04687,-2.34375 H 12.75 q 0.484375,-8.546875 4.828125,-13.09375 4.34375,-4.53125 10.84375,-4.53125 4.828125,0 8.25,2.53125 3.421875,2.546875 5.421875,8.109375 z M 13.234375,30.90625 H 42.1875 q -0.578125,6.546875 -3.3125,9.8125 -4.203125,5.078125 -10.890625,5.078125 -6.0625,0 -10.1875,-4.046875 -4.125,-4.046875 -4.5625,-10.84375 z" id="g" />
      <path stroke-linejoin="round" d="m 6.5,0 v 51.859375 h 7.90625 V 44 Q 17.4375,49.515625 20,51.265625 q 2.5625,1.765625 5.640625,1.765625 4.4375,0 9.03125,-2.828125 l -3.03125,-8.15625 q -3.21875,1.90625 -6.4375,1.90625 -2.890625,0 -5.1875,-1.734375 -2.296875,-1.734375 -3.265625,-4.8125 -1.46875,-4.6875 -1.46875,-10.25 V 0 Z" id="h" />
      <path stroke-linejoin="round" d="m 8.890625,0 v 10.015625 h 10 V 0 q 0,-5.515625 -1.953125,-8.90625 -1.953125,-3.40625 -6.1875,-5.25 l -2.453125,3.75 q 2.78125,1.21875 4.09375,3.59375 Q 13.71875,-4.4375 13.875,0 Z" id="i" />
      <path stroke-linejoin="round" d="M 6.640625,61.46875 V 71.578125 H 15.4375 V 61.46875 Z M 6.640625,0 V 51.859375 H 15.4375 V 0 Z" id="j" />
      <path stroke-linejoin="round" d="m 40.234375,0 v 6.546875 q -4.9375,-7.71875 -14.5,-7.71875 -6.203125,0 -11.40625,3.421875 -5.203125,3.421875 -8.0625,9.546875 -2.84375,6.125 -2.84375,14.078125 0,7.765625 2.578125,14.09375 2.59375,6.328125 7.765625,9.6875 5.1875,3.375 11.578125,3.375 4.6875,0 8.34375,-1.984375 3.671875,-1.96875 5.96875,-5.140625 v 25.671875 h 8.734375 V 0 Z m -27.78125,25.875 q 0,-9.953125 4.1875,-14.890625 Q 20.84375,6.0625 26.5625,6.0625 q 5.765625,0 9.78125,4.703125 4.03125,4.71875 4.03125,14.375 0,10.65625 -4.109375,15.625 Q 32.171875,45.75 26.171875,45.75 20.3125,45.75 16.375,40.96875 12.453125,36.1875 12.453125,25.875 Z" id="k" />
      <path stroke-linejoin="round" d="m 3.328125,25.921875 q 0,14.40625 8,21.34375 6.6875,5.765625 16.3125,5.765625 10.6875,0 17.46875,-7.015625 6.796875,-7 6.796875,-19.359375 0,-10 -3,-15.75 -3,-5.734375 -8.75,-8.90625 Q 34.421875,-1.171875 27.640625,-1.171875 16.75,-1.171875 10.03125,5.8125 3.328125,12.796875 3.328125,25.921875 Z m 9.03125,0 q 0,-9.953125 4.34375,-14.90625 4.34375,-4.953125 10.9375,-4.953125 6.546875,0 10.890625,4.96875 4.34375,4.984375 4.34375,15.1875 0,9.625 -4.375,14.578125 Q 34.125,45.75 27.640625,45.75 q -6.59375,0 -10.9375,-4.9375 -4.34375,-4.921875 -4.34375,-14.890625 z" id="l" />
      <path stroke-linejoin="round" d="M 6.59375,0 V 71.578125 H 15.375 V 45.90625 q 6.15625,7.125 15.53125,7.125 5.765625,0 10.015625,-2.28125 4.25,-2.265625 6.078125,-6.265625 1.828125,-4 1.828125,-11.625 V 0 h -8.78125 v 32.859375 q 0,6.59375 -2.859375,9.59375 -2.859375,3 -8.078125,3 -3.90625,0 -7.359375,-2.03125 Q 18.3125,41.40625 16.84375,37.9375 15.375,34.46875 15.375,28.375 V 0 Z" id="m" />
      <path stroke-linejoin="round" d="m 4.15625,35.296875 q 0,12.703125 2.609375,20.4375 2.609375,7.75 7.75,11.9375 5.15625,4.203125 12.96875,4.203125 5.765625,0 10.109375,-2.328125 4.34375,-2.3125 7.171875,-6.6875 Q 47.609375,58.5 49.21875,52.21875 q 1.609375,-6.265625 1.609375,-16.921875 0,-12.59375 -2.59375,-20.328125 Q 45.65625,7.234375 40.5,3 35.359375,-1.21875 27.484375,-1.21875 q -10.34375,0 -16.25,7.421875 -7.078125,8.9375 -7.078125,29.09375 z m 9.03125,0 q 0,-17.625 4.125,-23.46875 Q 21.4375,6 27.484375,6 q 6.0625,0 10.1875,5.859375 4.125,5.859375 4.125,23.4375 0,17.6875 -4.125,23.484375 -4.125,5.8125 -10.28125,5.8125 -6.046875,0 -9.671875,-5.125 Q 13.1875,52.9375 13.1875,35.296875 Z" id="n" />
      <path stroke-linejoin="round" d="M 7.859375,0 V 71.578125 H 39.59375 q 9.578125,0 14.546875,-1.9375 4.984375,-1.921875 7.96875,-6.8125 2.984375,-4.875 2.984375,-10.78125 0,-7.609375 -4.9375,-12.84375 Q 55.21875,33.984375 44.921875,32.5625 48.6875,30.765625 50.640625,29 54.78125,25.203125 58.5,19.484375 L 70.953125,0 H 59.03125 L 49.5625,14.890625 Q 45.40625,21.34375 42.71875,24.75 q -2.671875,3.421875 -4.796875,4.78125 -2.125,1.375 -4.328125,1.921875 -1.609375,0.328125 -5.265625,0.328125 h -11 V 0 Z m 9.46875,39.984375 h 20.375 q 6.484375,0 10.140625,1.34375 3.671875,1.34375 5.578125,4.296875 1.90625,2.953125 1.90625,6.421875 0,5.078125 -3.6875,8.34375 -3.6875,3.28125 -11.65625,3.28125 h -22.65625 z" id="o" />
   </defs>
   <g transform="translate(-107.28812,-71.656875)" id="g1267" stroke-linejoin="round">
      <path id="path1073" fill="none" d="M 0,720 H 1080 V 0 H 0 Z" />
      <g id="g1265">
         <path id="path1075" stroke-linejoin="round" fill="none" d="M 135,630 H 972 V 86.4 H 135 Z" />
         <g id="g1169" stroke-linejoin="round">
            <g id="g1085">
               <path id="path1077" stroke-linecap="round" stroke="#cccccc" fill="none" d="M 274.5,630 V 86.4" clip-path="url(#a)" />
               <g id="g1083" transform="matrix(0.11,0,0,-0.11,267.16266,647.37359)" fill="#262626">
                  <text transform="scale(1,-1)" id="text1838" y="-30.116209" x="-430.45111" style="font-style:normal;font-weight:normal;font-size:109.091px;line-height:1.25;font-family:sans-serif;fill:#000000;fill-opacity:1;stroke:none;stroke-width:6.81818" xml:space="preserve">
                     <tspan style="font-size:109.091px;stroke-width:6.81818" y="-30.116209" x="-430.45111" id="tspan1836" sodipodi:role="line">Elementary School</tspan>
                  </text>
                  <text transform="scale(1,-1)" xml:space="preserve" style="font-style:normal;font-weight:normal;font-size:109.091px;line-height:1.25;font-family:sans-serif;fill:#000000;fill-opacity:1;stroke:none;stroke-width:6.81818" x="2290.1035" y="-38.545856" id="text1838-0">
                     <tspan sodipodi:role="line" id="tspan1836-8" x="2290.1035" y="-38.545856" style="font-size:109.091px;stroke-width:6.81818">High School</tspan>
                  </text>
                  <text transform="scale(1,-1)" id="text1838-0-0" y="-54.779446" x="4787.2866" style="font-style:normal;font-weight:normal;font-size:109.091px;line-height:1.25;font-family:sans-serif;fill:#000000;fill-opacity:1;stroke:none;stroke-width:6.81818" xml:space="preserve">
                     <tspan style="font-size:109.091px;stroke-width:6.81818" y="-54.779446" x="4787.2866" id="tspan1836-8-9" sodipodi:role="line">Middle School</tspan>
                  </text>
               </g>
            </g>
            <g id="g1105">
               <path id="path1097" stroke-linecap="round" stroke="#cccccc" fill="none" d="M 832.5,630 V 86.4" clip-path="url(#a)" />
               <g id="g1103" transform="matrix(0.11,0,0,-0.11,824.25,647.37359)" fill="#262626" />
            </g>
            <g id="g1167" transform="matrix(0.12,0,0,-0.12,459.90469,662.29547)" fill="#262626">
               <use height="100%" width="100%" y="0" x="0" id="use1107" xlink:href="#b" />
               <use height="100%" width="100%" y="0" id="use1109" xlink:href="#f" x="66.699219" />
               <use height="100%" width="100%" y="0" id="use1111" xlink:href="#g" x="88.916016" />
               <path id="path1113" transform="translate(144.53125)" d="m 6.59375,0 v 51.859375 h 7.859375 v -7.28125 q 2.4375,3.8125 6.484375,6.125 4.0625,2.328125 9.234375,2.328125 5.765625,0 9.453125,-2.390625 3.6875,-2.390625 5.203125,-6.6875 6.15625,9.078125 16.015625,9.078125 7.71875,0 11.859375,-4.28125 4.15625,-4.265625 4.15625,-13.15625 V 0 h -8.75 v 32.671875 q 0,5.265625 -0.859375,7.578125 -0.84375,2.328125 -3.09375,3.734375 -2.234375,1.421875 -5.265625,1.421875 -5.46875,0 -9.09375,-3.640625 Q 46.1875,38.140625 46.1875,30.125 V 0 h -8.78125 v 33.6875 q 0,5.859375 -2.15625,8.78125 -2.140625,2.9375 -7.03125,2.9375 -3.703125,0 -6.859375,-1.953125 Q 18.21875,41.5 16.796875,37.734375 15.375,33.984375 15.375,26.90625 V 0 Z" />
               <use height="100%" width="100%" y="0" id="use1115" xlink:href="#g" x="227.83203" />
               <path id="path1117" transform="translate(283.44727)" d="M 6.59375,0 V 51.859375 H 14.5 v -7.375 q 5.71875,8.546875 16.5,8.546875 4.6875,0 8.625,-1.6875 3.9375,-1.6875 5.890625,-4.421875 Q 47.46875,44.1875 48.25,40.4375 48.734375,37.984375 48.734375,31.890625 V 0 H 39.9375 v 31.546875 q 0,5.375 -1.03125,8.03125 -1.015625,2.65625 -3.625,4.234375 -2.609375,1.59375 -6.125,1.59375 -5.625,0 -9.703125,-3.5625 Q 15.375,38.28125 15.375,28.328125 V 0 Z" />
               <path id="path1119" transform="translate(339.0625)" d="M 25.78125,7.859375 27.046875,0.09375 Q 23.34375,-0.6875 20.40625,-0.6875 15.625,-0.6875 12.984375,0.828125 10.359375,2.34375 9.28125,4.8125 8.203125,7.28125 8.203125,15.1875 v 29.828125 h -6.4375 v 6.84375 h 6.4375 v 12.84375 L 16.9375,69.96875 V 51.859375 h 8.84375 v -6.84375 H 16.9375 v -30.3125 q 0,-3.765625 0.46875,-4.84375 0.46875,-1.0625 1.515625,-1.703125 1.046875,-0.640625 3,-0.640625 1.46875,0 3.859375,0.34375 z" />
               <path id="path1121" transform="translate(366.8457)" d="M 40.4375,6.390625 Q 35.546875,2.25 31.03125,0.53125 q -4.515625,-1.703125 -9.6875,-1.703125 -8.546875,0 -13.140625,4.171875 -4.59375,4.171875 -4.59375,10.671875 0,3.8125 1.734375,6.953125 1.734375,3.15625 4.546875,5.0625 2.8125,1.90625 6.328125,2.875 2.578125,0.6875 7.8125,1.328125 10.640625,1.265625 15.671875,3.015625 0.04687,1.8125 0.04687,2.296875 0,5.375 -2.5,7.578125 -3.359375,2.96875 -10,2.96875 -6.203125,0 -9.15625,-2.171875 -2.953125,-2.171875 -4.375,-7.6875 L 5.125,37.0625 q 1.171875,5.515625 3.859375,8.90625 2.6875,3.390625 7.765625,5.21875 5.078125,1.84375 11.765625,1.84375 6.640625,0 10.78125,-1.5625 4.15625,-1.5625 6.109375,-3.9375 1.953125,-2.359375 2.734375,-5.984375 0.4375,-2.234375 0.4375,-8.09375 v -11.71875 q 0,-12.265625 0.5625,-15.515625 Q 49.703125,2.984375 51.375,0 h -9.1875 q -1.359375,2.734375 -1.75,6.390625 z M 39.703125,26.03125 Q 34.90625,24.078125 25.34375,22.703125 19.921875,21.921875 17.671875,20.9375 15.4375,19.96875 14.203125,18.09375 q -1.21875,-1.875 -1.21875,-4.171875 0,-3.515625 2.65625,-5.859375 2.671875,-2.34375 7.796875,-2.34375 5.078125,0 9.03125,2.21875 3.953125,2.21875 5.8125,6.078125 1.421875,2.984375 1.421875,8.78125 z" />
               <use height="100%" width="100%" y="0" id="use1123" xlink:href="#h" x="422.46094" />
               <path id="path1125" transform="translate(455.76172)" d="m 6.203125,-19.96875 -0.984375,8.25 Q 8.109375,-12.5 10.25,-12.5 q 2.9375,0 4.6875,0.984375 1.765625,0.96875 2.890625,2.71875 0.828125,1.328125 2.6875,6.546875 0.234375,0.734375 0.78125,2.15625 l -19.6875,51.953125 h 9.46875 L 21.875,21.828125 Q 23.96875,16.109375 25.640625,9.8125 27.15625,15.875 29.25,21.625 L 40.328125,51.859375 H 49.125 L 29.390625,-0.875 Q 26.21875,-9.421875 24.46875,-12.640625 22.125,-17 19.09375,-19.015625 q -3.03125,-2.03125 -7.234375,-2.03125 -2.53125,0 -5.65625,1.078125 z" />
               <use height="100%" width="100%" y="0" id="use1127" xlink:href="#i" x="498.38672" />
               <use height="100%" width="100%" y="0" id="use1129" xlink:href="#e" x="553.95312" />
               <use height="100%" width="100%" y="0" id="use1131" xlink:href="#j" x="637.25391" />
               <use height="100%" width="100%" y="0" id="use1133" xlink:href="#k" x="659.4707" />
               <use height="100%" width="100%" y="0" id="use1135" xlink:href="#k" x="715.08594" />
               <use height="100%" width="100%" y="0" id="use1137" xlink:href="#f" x="770.70117" />
               <use height="100%" width="100%" y="0" id="use1139" xlink:href="#g" x="792.91797" />
               <use height="100%" width="100%" y="0" id="use1141" xlink:href="#i" x="848.5332" />
               <use height="100%" width="100%" y="0" id="use1143" xlink:href="#l" x="904.09961" />
               <use height="100%" width="100%" y="0" id="use1145" xlink:href="#h" x="959.71484" />
               <use height="100%" width="100%" y="0" id="use1147" xlink:href="#d" x="1020.7988" />
               <use height="100%" width="100%" y="0" id="use1149" xlink:href="#j" x="1093.0156" />
               <path id="path1151" transform="translate(1115.2324)" d="M 4.984375,-4.296875 13.53125,-5.5625 q 0.53125,-3.953125 2.96875,-5.765625 3.28125,-2.4375 8.9375,-2.4375 6.109375,0 9.421875,2.4375 3.328125,2.4375 4.5,6.828125 0.6875,2.6875 0.625,11.28125 Q 34.234375,0 25.640625,0 14.9375,0 9.078125,7.71875 q -5.859375,7.71875 -5.859375,18.5 0,7.421875 2.6875,13.6875 2.6875,6.28125 7.78125,9.703125 5.109375,3.421875 12,3.421875 9.171875,0 15.140625,-7.421875 v 6.25 h 8.09375 V 7.03125 q 0,-12.109375 -2.46875,-17.15625 -2.453125,-5.0625 -7.8125,-7.984375 -5.34375,-2.9375 -13.15625,-2.9375 -9.265625,0 -14.984375,4.171875 -5.71875,4.171875 -5.515625,12.578125 z M 12.25,26.859375 q 0,-10.203125 4.046875,-14.890625 4.0625,-4.6875 10.171875,-4.6875 6.046875,0 10.140625,4.65625 4.109375,4.671875 4.109375,14.625 0,9.515625 -4.21875,14.34375 Q 32.28125,45.75 26.3125,45.75 q -5.859375,0 -9.96875,-4.765625 -4.09375,-4.75 -4.09375,-14.125 z" />
               <use height="100%" width="100%" y="0" id="use1153" xlink:href="#m" x="1170.8477" />
               <use height="100%" width="100%" y="0" id="use1155" xlink:href="#c" x="1254.2461" />
               <path id="path1157" transform="translate(1320.9453)" d="m 40.4375,19 8.640625,-1.125 Q 47.65625,8.9375 41.8125,3.875 35.984375,-1.171875 27.484375,-1.171875 16.84375,-1.171875 10.375,5.78125 3.90625,12.75 3.90625,25.734375 q 0,8.390625 2.78125,14.6875 2.78125,6.3125 8.46875,9.453125 5.6875,3.15625 12.390625,3.15625 8.4375,0 13.8125,-4.28125 5.375,-4.265625 6.890625,-12.125 l -8.546875,-1.328125 q -1.21875,5.234375 -4.328125,7.859375 -3.09375,2.640625 -7.5,2.640625 -6.640625,0 -10.796875,-4.765625 -4.140625,-4.75 -4.140625,-15.046875 0,-10.453125 4,-15.1875 Q 20.953125,6.0625 27.390625,6.0625 32.5625,6.0625 36.03125,9.234375 39.5,12.40625 40.4375,19 Z" />
               <use height="100%" width="100%" y="0" id="use1159" xlink:href="#m" x="1370.9453" />
               <use height="100%" width="100%" y="0" id="use1161" xlink:href="#l" x="1426.5605" />
               <use height="100%" width="100%" y="0" id="use1163" xlink:href="#l" x="1482.1758" />
               <use height="100%" width="100%" y="0" id="use1165" xlink:href="#f" x="1537.791" />
            </g>
         </g>
         <g id="g1225" stroke-linejoin="round">
            <g id="g1175">
               <path id="path1171" stroke-linecap="round" stroke="#cccccc" fill="none" d="M 135,630 H 972" clip-path="url(#a)" />
               <use height="100%" width="100%" y="0" x="0" id="use1173" xlink:href="#n" transform="matrix(0.11,0,0,-0.11,119.38297,633.9368)" fill="#262626" />
            </g>
            <g id="g1187">
               <path id="path1177" stroke-linecap="round" stroke="#cccccc" fill="none" d="M 135,517.94063 H 972" clip-path="url(#a)" />
               <g id="g1185" transform="matrix(0.11,0,0,-0.11,107.14891,521.87743)" fill="#262626">
                  <path id="path1179" d="m 37.25,0 h -8.78125 v 56 q -3.171875,-3.015625 -8.328125,-6.046875 -5.15625,-3.03125 -9.25,-4.546875 v 8.5 q 7.375,3.46875 12.890625,8.390625 5.515625,4.9375 7.8125,9.578125 H 37.25 Z" />
                  <use height="100%" width="100%" y="0" id="use1181" xlink:href="#n" x="55.615234" />
                  <use height="100%" width="100%" y="0" id="use1183" xlink:href="#n" x="111.23047" />
               </g>
            </g>
            <g id="g1199">
               <path id="path1189" stroke-linecap="round" stroke="#cccccc" fill="none" d="M 135,405.88126 H 972" clip-path="url(#a)" />
               <g id="g1197" transform="matrix(0.11,0,0,-0.11,107.14891,409.81806)" fill="#262626">
                  <path id="path1191" d="M 50.34375,8.453125 V 0 H 3.03125 Q 2.9375,3.171875 4.046875,6.109375 5.859375,10.9375 9.828125,15.625 13.8125,20.3125 21.34375,26.46875 q 11.671875,9.5625 15.765625,15.15625 4.109375,5.59375 4.109375,10.578125 0,5.21875 -3.75,8.796875 -3.734375,3.59375 -9.734375,3.59375 -6.34375,0 -10.15625,-3.8125 Q 13.765625,56.984375 13.71875,50.25 L 4.6875,51.171875 q 0.921875,10.109375 6.96875,15.40625 6.0625,5.296875 16.28125,5.296875 10.296875,0 16.296875,-5.71875 Q 50.25,60.453125 50.25,52 50.25,47.703125 48.484375,43.546875 46.734375,39.40625 42.65625,34.8125 38.578125,30.21875 29.109375,22.21875 21.1875,15.578125 18.9375,13.203125 q -2.234375,-2.359375 -3.703125,-4.75 z" />
                  <use height="100%" width="100%" y="0" id="use1193" xlink:href="#n" x="55.615234" />
                  <use height="100%" width="100%" y="0" id="use1195" xlink:href="#n" x="111.23047" />
               </g>
            </g>
            <g id="g1211">
               <path id="path1201" stroke-linecap="round" stroke="#cccccc" fill="none" d="M 135,293.82189 H 972" clip-path="url(#a)" />
               <g id="g1209" transform="matrix(0.11,0,0,-0.11,107.14891,297.75869)" fill="#262626">
                  <path id="path1203" d="m 4.203125,18.890625 8.78125,1.171875 Q 14.5,12.59375 18.140625,9.296875 21.78125,6 27,6 33.203125,6 37.46875,10.296875 41.75,14.59375 41.75,20.953125 q 0,6.046875 -3.953125,9.96875 -3.953125,3.9375 -10.0625,3.9375 -2.484375,0 -6.203125,-0.96875 l 0.984375,7.71875 Q 23.390625,41.5 23.921875,41.5 q 5.625,0 10.109375,2.921875 4.5,2.9375 4.5,9.046875 0,4.828125 -3.28125,8 -3.265625,3.1875 -8.4375,3.1875 -5.125,0 -8.546875,-3.234375 -3.421875,-3.21875 -4.390625,-9.65625 l -8.796875,1.5625 q 1.609375,8.828125 7.3125,13.6875 5.71875,4.859375 14.21875,4.859375 5.859375,0 10.78125,-2.515625 4.9375,-2.515625 7.546875,-6.859375 2.625,-4.34375 2.625,-9.234375 0,-4.625 -2.5,-8.4375 -2.484375,-3.8125 -7.359375,-6.0625 6.34375,-1.453125 9.859375,-6.078125 3.515625,-4.609375 3.515625,-11.546875 0,-9.375 -6.84375,-15.890625 -6.828125,-6.515625 -17.28125,-6.515625 -9.421875,0 -15.65625,5.609375 -6.21875,5.625 -7.09375,14.546875 z" />
                  <use height="100%" width="100%" y="0" id="use1205" xlink:href="#n" x="55.615234" />
                  <use height="100%" width="100%" y="0" id="use1207" xlink:href="#n" x="111.23047" />
               </g>
            </g>
            <g id="g1223">
               <path id="path1213" stroke-linecap="round" stroke="#cccccc" fill="none" d="M 135,181.76252 H 972" clip-path="url(#a)" />
               <g id="g1221" transform="matrix(0.11,0,0,-0.11,107.14891,185.69932)" fill="#262626">
                  <path id="path1215" d="m 32.328125,0 v 17.140625 h -31.0625 v 8.0625 l 32.671875,46.375 h 7.171875 v -46.375 h 9.671875 v -8.0625 H 41.109375 V 0 Z m 0,25.203125 V 57.46875 L 9.90625,25.203125 Z" />
                  <use height="100%" width="100%" y="0" id="use1217" xlink:href="#n" x="55.615234" />
                  <use height="100%" width="100%" y="0" id="use1219" xlink:href="#n" x="111.23047" />
               </g>
            </g>
         </g>
         <g transform="translate(1.5)" id="g1241" stroke-linejoin="miter">
            <path id="path1227" stroke="#ffffff" fill="#4c72b0" d="m 204.75,630 h 139.5 V 112.28571 h -139.5 z" clip-path="url(#a)" />
            <path id="path1229" stroke="#ffffff" fill="#4c72b0" d="m 483.75,630 h 139.5 V 525.78479 h -139.5 z" clip-path="url(#a)" />
            <path id="path1231" stroke="#ffffff" fill="#4c72b0" d="m 762.75,630 h 139.5 v -12.32653 h -139.5 z" clip-path="url(#a)" />
            <path id="path1233" stroke-width="1.25" stroke-linecap="square" stroke="#cccccc" fill="none" d="M 135,630 V 86.4" />
            <path id="path1235" stroke-width="1.25" stroke-linecap="square" stroke="#cccccc" fill="none" d="M 972,630 V 86.4" />
            <path id="path1237" stroke-width="1.25" stroke-linecap="square" stroke="#cccccc" fill="none" d="M 135,630 H 972" />
            <path id="path1239" stroke-width="1.25" stroke-linecap="square" stroke="#cccccc" fill="none" d="M 135,86.4 H 972" />
         </g>
         <g id="g1263" transform="matrix(0.12,0,0,-0.12,511.49344,80.4)" stroke-linejoin="round" fill="#262626">
            <path id="path1243" d="m 58.796875,25.09375 9.46875,-2.390625 Q 65.28125,11.03125 57.546875,4.90625 49.8125,-1.21875 38.625,-1.21875 q -11.578125,0 -18.828125,4.703125 -7.25,4.71875 -11.03125,13.65625 -3.78125,8.9375 -3.78125,19.1875 0,11.1875 4.265625,19.5 4.28125,8.328125 12.15625,12.640625 7.890625,4.328125 17.359375,4.328125 10.75,0 18.0625,-5.46875 7.328125,-5.46875 10.21875,-15.375 L 57.71875,49.75 q -2.5,7.8125 -7.234375,11.375 -4.734375,3.578125 -11.90625,3.578125 -8.25,0 -13.796875,-3.96875 -5.546875,-3.953125 -7.796875,-10.625 Q 14.75,43.453125 14.75,36.375 q 0,-9.125 2.65625,-15.9375 2.65625,-6.8125 8.265625,-10.1875 5.625,-3.359375 12.171875,-3.359375 7.953125,0 13.46875,4.578125 5.53125,4.59375 7.484375,13.625 z" />
            <use height="100%" width="100%" y="0" id="use1245" xlink:href="#o" x="72.216797" />
            <path id="path1247" transform="translate(144.43359)" d="M -0.140625,0 27.34375,71.578125 H 37.546875 L 66.84375,0 H 56.0625 L 47.703125,21.6875 H 17.78125 L 9.90625,0 Z m 20.65625,29.390625 H 44.78125 L 37.3125,49.21875 Q 33.890625,58.25 32.234375,64.0625 30.859375,57.171875 28.375,50.390625 Z" />
            <use height="100%" width="100%" y="0" id="use1249" xlink:href="#c" x="211.13281" />
            <use height="100%" width="100%" y="0" id="use1251" xlink:href="#d" x="277.83203" />
            <path id="path1253" transform="translate(350.04883)" d="m -1.515625,-19.875 v 6.34375 h 58.25 V -19.875 Z" />
            <use height="100%" width="100%" y="0" id="use1255" xlink:href="#d" x="405.66406" />
            <path id="path1257" transform="translate(477.88086)" d="m 4.828125,34.859375 q 0,17.828125 9.5625,27.90625 9.578125,10.09375 24.71875,10.09375 9.921875,0 17.875,-4.75 7.953125,-4.734375 12.125,-13.203125 4.1875,-8.46875 4.1875,-19.21875 0,-10.875 -4.40625,-19.46875 Q 64.5,7.625 56.4375,3.203125 48.390625,-1.21875 39.0625,-1.21875 q -10.109375,0 -18.078125,4.875 -7.953125,4.890625 -12.0625,13.328125 -4.09375,8.453125 -4.09375,17.875 z M 14.59375,34.71875 q 0,-12.9375 6.953125,-20.390625 6.96875,-7.4375 17.46875,-7.4375 10.6875,0 17.59375,7.515625 6.921875,7.515625 6.921875,21.34375 0,8.734375 -2.953125,15.25 -2.953125,6.515625 -8.65625,10.109375 -5.6875,3.59375 -12.765625,3.59375 -10.046875,0 -17.3125,-6.921875 -7.25,-6.90625 -7.25,-23.0625 z" />
            <path id="path1259" transform="translate(555.66406)" d="m 54.6875,71.578125 h 9.46875 V 30.21875 q 0,-10.78125 -2.4375,-17.140625 -2.4375,-6.34375 -8.8125,-10.328125 -6.375,-3.96875 -16.71875,-3.96875 -10.0625,0 -16.46875,3.46875 -6.390625,3.46875 -9.125,10.03125 -2.734375,6.5625 -2.734375,17.9375 v 41.359375 h 9.46875 V 30.28125 q 0,-9.328125 1.734375,-13.75 1.734375,-4.421875 5.953125,-6.8125 4.234375,-2.390625 10.34375,-2.390625 10.4375,0 14.875,4.734375 4.453125,4.734375 4.453125,18.21875 z" />
            <use height="100%" width="100%" y="0" id="use1261" xlink:href="#o" x="627.88086" />
         </g>
      </g>
   </g>
</svg>
