<svg height="587.25568pt" stroke-linejoin="round" viewBox="0 0 877.57092 587.25568" width="877.57092pt" 
  xmlns="http://www.w3.org/2000/svg" 
  xmlns:xlink="http://www.w3.org/1999/xlink">
  <defs stroke-linejoin="round">
    <clipPath id="a" stroke-linejoin="round">
      <path d="m135 86.4h837v543.6h-837z"/>
    </clipPath>
    <path id="b" d="m37.25 0h-8.78125v56q-3.171875-3.015625-8.328125-6.046875-5.15625-3.03125-9.25-4.546875v8.5q7.375 3.46875 12.890625 8.390625 5.515625 4.9375 7.8125 9.578125h5.65625z" stroke-linejoin="round"/>
    <path id="c" d="m50.34375 8.453125v-8.453125h-47.3125q-.09375 3.171875 1.015625 6.109375 1.8125 4.828125 5.78125 9.515625 3.984375 4.6875 11.515625 10.84375 11.671875 9.5625 15.765625 15.15625 4.109375 5.59375 4.109375 10.578125 0 5.21875-3.75 8.796875-3.734375 3.59375-9.734375 3.59375-6.34375 0-10.15625-3.8125-3.8125-3.796875-3.859375-10.53125l-9.03125.921875q.921875 10.109375 6.96875 15.40625 6.0625 5.296875 16.28125 5.296875 10.296875 0 16.296875-5.71875 6.015625-5.703125 6.015625-14.15625 0-4.296875-1.765625-8.453125-1.75-4.140625-5.828125-8.734375-4.078125-4.59375-13.546875-12.59375-7.921875-6.640625-10.171875-9.015625-2.234375-2.359375-3.703125-4.75z" stroke-linejoin="round"/>
    <path id="d" d="m4.203125 18.890625 8.78125 1.171875q1.515625-7.46875 5.15625-10.765625 3.640625-3.296875 8.859375-3.296875 6.203125 0 10.46875 4.296875 4.28125 4.296875 4.28125 10.65625 0 6.046875-3.953125 9.96875-3.953125 3.9375-10.0625 3.9375-2.484375 0-6.203125-.96875l.984375 7.71875q.875-.109375 1.40625-.109375 5.625 0 10.109375 2.921875 4.5 2.9375 4.5 9.046875 0 4.828125-3.28125 8-3.265625 3.1875-8.4375 3.1875-5.125 0-8.546875-3.234375-3.421875-3.21875-4.390625-9.65625l-8.796875 1.5625q1.609375 8.828125 7.3125 13.6875 5.71875 4.859375 14.21875 4.859375 5.859375 0 10.78125-2.515625 4.9375-2.515625 7.546875-6.859375 2.625-4.34375 2.625-9.234375 0-4.625-2.5-8.4375-2.484375-3.8125-7.359375-6.0625 6.34375-1.453125 9.859375-6.078125 3.515625-4.609375 3.515625-11.546875 0-9.375-6.84375-15.890625-6.828125-6.515625-17.28125-6.515625-9.421875 0-15.65625 5.609375-6.21875 5.625-7.09375 14.546875z" stroke-linejoin="round"/>
    <path id="e" d="m32.328125 0v17.140625h-31.0625v8.0625l32.671875 46.375h7.171875v-46.375h9.671875v-8.0625h-9.671875v-17.140625zm0 25.203125v32.265625l-22.421875-32.265625z" stroke-linejoin="round"/>
    <path id="f" d="m4.15625 18.75 9.21875.78125q1.03125-6.734375 4.765625-10.140625 3.734375-3.390625 9.015625-3.390625 6.34375 0 10.734375 4.78125 4.390625 4.796875 4.390625 12.703125 0 7.515625-4.21875 11.859375-4.21875 4.359375-11.0625 4.359375-4.25 0-7.671875-1.9375-3.40625-1.921875-5.359375-5l-8.25 1.078125 6.921875 36.765625h35.609375v-8.40625h-28.578125l-3.84375-19.234375q6.4375 4.5 13.515625 4.5 9.375 0 15.8125-6.5 6.453125-6.5 6.453125-16.703125 0-9.71875-5.65625-16.796875-6.890625-8.6875-18.796875-8.6875-9.765625 0-15.953125 5.46875-6.171875 5.46875-7.046875 14.5z" stroke-linejoin="round"/>
    <path id="g" d="m49.75 54.046875-8.734375-.671875q-1.171875 5.171875-3.3125 7.515625-3.578125 3.765625-8.796875 3.765625-4.203125 0-7.375-2.34375-4.140625-3.03125-6.546875-8.84375-2.390625-5.8125-2.484375-16.546875 3.171875 4.828125 7.765625 7.171875 4.59375 2.34375 9.625 2.34375 8.78125 0 14.953125-6.46875 6.1875-6.46875 6.1875-16.71875 0-6.75-2.90625-12.53125-2.90625-5.78125-7.984375-8.859375-5.078125-3.078125-11.53125-3.078125-10.984375 0-17.921875 8.078125-6.921875 8.078125-6.921875 26.640625 0 20.75 7.65625 30.171875 6.6875 8.203125 18.015625 8.203125 8.453125 0 13.84375-4.734375 5.40625-4.734375 6.46875-13.09375zm-35.875-30.859375q0-4.53125 1.921875-8.6875 1.921875-4.140625 5.390625-6.328125 3.46875-2.171875 7.28125-2.171875 5.5625 0 9.5625 4.484375 4.015625 4.5 4.015625 12.21875 0 7.421875-3.96875 11.6875-3.953125 4.28125-9.953125 4.28125-5.953125 0-10.109375-4.28125-4.140625-4.265625-4.140625-11.203125z" stroke-linejoin="round"/>
    <path id="h" d="m4.734375 62.203125v8.453125h46.34375v-6.84375q-6.84375-7.265625-13.5625-19.328125-6.703125-12.0625-10.359375-24.8125-2.640625-8.984375-3.375-19.671875h-9.03125q.140625 8.453125 3.3125 20.40625 3.171875 11.96875 9.109375 23.078125 5.9375 11.109375 12.625 18.71875z" stroke-linejoin="round"/>
    <path id="i" d="m58.796875 25.09375 9.46875-2.390625q-2.984375-11.671875-10.71875-17.796875-7.734375-6.125-18.921875-6.125-11.578125 0-18.828125 4.703125-7.25 4.71875-11.03125 13.65625-3.78125 8.9375-3.78125 19.1875 0 11.1875 4.265625 19.5 4.28125 8.328125 12.15625 12.640625 7.890625 4.328125 17.359375 4.328125 10.75 0 18.0625-5.46875 7.328125-5.46875 10.21875-15.375l-9.328125-2.203125q-2.5 7.8125-7.234375 11.375-4.734375 3.578125-11.90625 3.578125-8.25 0-13.796875-3.96875-5.546875-3.953125-7.796875-10.625-2.234375-6.65625-2.234375-13.734375 0-9.125 2.65625-15.9375 2.65625-6.8125 8.265625-10.1875 5.625-3.359375 12.171875-3.359375 7.953125 0 13.46875 4.578125 5.53125 4.59375 7.484375 13.625z" stroke-linejoin="round"/>
    <path id="j" d="m7.859375 0v71.578125h31.734375q9.578125 0 14.546875-1.9375 4.984375-1.921875 7.96875-6.8125 2.984375-4.875 2.984375-10.78125 0-7.609375-4.9375-12.84375-4.9375-5.21875-15.234375-6.640625 3.765625-1.796875 5.71875-3.5625 4.140625-3.796875 7.859375-9.515625l12.453125-19.484375h-11.921875l-9.46875 14.890625q-4.15625 6.453125-6.84375 9.859375-2.671875 3.421875-4.796875 4.78125-2.125 1.375-4.328125 1.921875-1.609375.328125-5.265625.328125h-11v-31.78125zm9.46875 39.984375h20.375q6.484375 0 10.140625 1.34375 3.671875 1.34375 5.578125 4.296875 1.90625 2.953125 1.90625 6.421875 0 5.078125-3.6875 8.34375-3.6875 3.28125-11.65625 3.28125h-22.65625z" stroke-linejoin="round"/>
    <path id="k" d="m-.140625 0 27.484375 71.578125h10.203125l29.296875-71.578125h-10.78125l-8.359375 21.6875h-29.921875l-7.875-21.6875zm20.65625 29.390625h24.265625l-7.46875 19.828125q-3.421875 9.03125-5.078125 14.84375-1.375-6.890625-3.859375-13.671875z" stroke-linejoin="round"/>
    <path id="l" d="m4.5 23 8.921875.78125q.640625-5.375 2.953125-8.8125 2.328125-3.4375 7.203125-5.5625 4.890625-2.125 11-2.125 5.40625 0 9.5625 1.609375 4.15625 1.609375 6.171875 4.40625 2.03125 2.8125 2.03125 6.140625 0 3.359375-1.953125 5.875-1.953125 2.515625-6.4375 4.234375-2.890625 1.125-12.75 3.484375-9.859375 2.375-13.8125 4.46875-5.140625 2.6875-7.65625 6.65625-2.5 3.984375-2.5 8.921875 0 5.421875 3.0625 10.125 3.078125 4.71875 8.984375 7.15625 5.921875 2.4375 13.140625 2.4375 7.953125 0 14.03125-2.5625 6.09375-2.5625 9.359375-7.546875 3.265625-4.96875 3.515625-11.265625l-9.078125-.6875q-.734375 6.78125-4.96875 10.25-4.21875 3.46875-12.46875 3.46875-8.59375 0-12.53125-3.15625-3.921875-3.140625-3.921875-7.578125 0-3.859375 2.78125-6.359375 2.734375-2.484375 14.28125-5.09375 11.546875-2.609375 15.84375-4.5625 6.25-2.890625 9.21875-7.3125 2.984375-4.40625 2.984375-10.171875 0-5.71875-3.265625-10.78125-3.265625-5.046875-9.40625-7.859375-6.125-2.796875-13.78125-2.796875-9.71875 0-16.296875 2.828125-6.5625 2.828125-10.296875 8.515625-3.734375 5.703125-3.921875 12.875z" stroke-linejoin="round"/>
    <path id="m" d="m8.015625 0v71.578125h9.46875v-29.390625h37.203125v29.390625h9.46875v-71.578125h-9.46875v33.734375h-37.203125v-33.734375z" stroke-linejoin="round"/>
    <path id="n" d="m-1.515625-19.875v6.34375h58.25v-6.34375z" stroke-linejoin="round"/>
    <path id="o" d="m7.71875 0v71.578125h24.65625q8.34375 0 12.75-1.015625 6.140625-1.421875 10.484375-5.125 5.671875-4.796875 8.46875-12.25 2.8125-7.4375 2.8125-17 0-8.15625-1.90625-14.453125-1.890625-6.296875-4.875-10.4375-2.984375-4.125-6.53125-6.5-3.53125-2.359375-8.53125-3.578125-5-1.21875-11.5-1.21875zm9.46875 8.453125h15.28125q7.078125 0 11.109375 1.3125 4.03125 1.3125 6.421875 3.71875 3.375 3.359375 5.25 9.046875 1.875 5.6875 1.875 13.796875 0 11.234375-3.6875 17.265625-3.6875 6.03125-8.953125 8.078125-3.8125 1.46875-12.25 1.46875h-15.046875z" stroke-linejoin="round"/>
    <path id="p" d="m27.875 0v30.328125l-27.578125 41.25h11.515625l14.109375-21.578125q3.90625-6.046875 7.28125-12.109375 3.21875 5.609375 7.8125 12.640625l13.875 21.046875h11.03125l-28.5625-41.25v-30.328125z" stroke-linejoin="round"/>
    <path id="q" d="m4.828125 34.859375q0 17.828125 9.5625 27.90625 9.578125 10.09375 24.71875 10.09375 9.921875 0 17.875-4.75 7.953125-4.734375 12.125-13.203125 4.1875-8.46875 4.1875-19.21875 0-10.875-4.40625-19.46875-4.390625-8.59375-12.453125-13.015625-8.046875-4.421875-17.375-4.421875-10.109375 0-18.078125 4.875-7.953125 4.890625-12.0625 13.328125-4.09375 8.453125-4.09375 17.875zm9.765625-.140625q0-12.9375 6.953125-20.390625 6.96875-7.4375 17.46875-7.4375 10.6875 0 17.59375 7.515625 6.921875 7.515625 6.921875 21.34375 0 8.734375-2.953125 15.25-2.953125 6.515625-8.65625 10.109375-5.6875 3.59375-12.765625 3.59375-10.046875 0-17.3125-6.921875-7.25-6.90625-7.25-23.0625z" stroke-linejoin="round"/>
    <path id="r" d="m8.203125 0v71.578125h48.296875v-8.4375h-38.828125v-22.171875h33.59375v-8.453125h-33.59375v-32.515625z" stroke-linejoin="round"/>
    <path id="s" d="m20.21875 0-19 71.578125h9.71875l10.890625-46.921875q1.75-7.375 3.03125-14.640625 2.734375 11.46875 3.21875 13.234375l13.625 48.328125h11.421875l10.25-36.21875q3.859375-13.484375 5.578125-25.34375 1.359375 6.78125 3.5625 15.578125l11.21875 45.984375h9.53125l-19.625-71.578125h-9.140625l-15.078125 54.546875q-1.90625 6.828125-2.25 8.390625-1.125-4.921875-2.109375-8.390625l-15.171875-54.546875z" stroke-linejoin="round"/>
    <path id="t" d="m7.90625 0v71.578125h51.765625v-8.4375h-42.28125v-21.921875h39.59375v-8.40625h-39.59375v-24.359375h43.9375v-8.453125z" stroke-linejoin="round"/>
    <path id="u" d="m7.328125 0v71.578125h9.46875v-35.5l35.546875 35.5h12.84375l-30.03125-29 31.34375-42.578125h-12.5l-25.484375 36.234375-11.71875-11.421875v-24.8125z" stroke-linejoin="round"/>
    <path id="v" d="m4.15625 35.296875q0 12.703125 2.609375 20.4375 2.609375 7.75 7.75 11.9375 5.15625 4.203125 12.96875 4.203125 5.765625 0 10.109375-2.328125 4.34375-2.3125 7.171875-6.6875 2.84375-4.359375 4.453125-10.640625 1.609375-6.265625 1.609375-16.921875 0-12.59375-2.59375-20.328125-2.578125-7.734375-7.734375-11.96875-5.140625-4.21875-13.015625-4.21875-10.34375 0-16.25 7.421875-7.078125 8.9375-7.078125 29.09375zm9.03125 0q0-17.625 4.125-23.46875 4.125-5.828125 10.171875-5.828125 6.0625 0 10.1875 5.859375 4.125 5.859375 4.125 23.4375 0 17.6875-4.125 23.484375-4.125 5.8125-10.28125 5.8125-6.046875 0-9.671875-5.125-4.53125-6.53125-4.53125-24.171875z" stroke-linejoin="round"/>
  </defs>
  <g stroke-linejoin="round" transform="translate(-95.054063 -77.432276)">
    <path d="m0 720h1080v-720h-1080z" fill="none"/>
    <g transform="matrix(1 0 0 .99026122 0 6.473252)">
      <g stroke-linejoin="round">
        <path d="m135 630h837v-543.6h-837z" fill="none"/>
        <g>
          <path clip-path="url(#a)" d="m194.78571 630v-543.6" fill="none" stroke="#ccc" stroke-linecap="round"/>
          <use fill="#262626" height="100%" transform="matrix(.11 0 0 -.11 191.7272 647.37359)" width="100%" xlink:href="#b"/>
          <path clip-path="url(#a)" d="m314.35714 630v-543.6" fill="none" stroke="#ccc" stroke-linecap="round"/>
          <use fill="#262626" height="100%" transform="matrix(.11 0 0 -.11 311.29863 647.37359)" width="100%" xlink:href="#c"/>
          <path clip-path="url(#a)" d="m433.92857 630v-543.6" fill="none" stroke="#ccc" stroke-linecap="round"/>
          <use fill="#262626" height="100%" transform="matrix(.11 0 0 -.11 430.87006 647.37359)" width="100%" xlink:href="#d"/>
          <path clip-path="url(#a)" d="m553.5 630v-543.6" fill="none" stroke="#ccc" stroke-linecap="round"/>
          <use fill="#262626" height="100%" transform="matrix(.11 0 0 -.11 550.44148 647.37359)" width="100%" xlink:href="#e"/>
          <path clip-path="url(#a)" d="m673.07143 630v-543.6" fill="none" stroke="#ccc" stroke-linecap="round"/>
          <use fill="#262626" height="100%" transform="matrix(.11 0 0 -.11 670.01291 647.37359)" width="100%" xlink:href="#f"/>
          <path clip-path="url(#a)" d="m792.64286 630v-543.6" fill="none" stroke="#ccc" stroke-linecap="round"/>
          <use fill="#262626" height="100%" transform="matrix(.11 0 0 -.11 789.58434 647.37359)" width="100%" xlink:href="#g"/>
          <path clip-path="url(#a)" d="m912.21429 630v-543.6" fill="none" stroke="#ccc" stroke-linecap="round"/>
          <g fill="#262626">
            <use height="100%" transform="matrix(.11 0 0 -.11 909.15577 647.37359)" width="100%" xlink:href="#h"/>
            <g transform="matrix(.12 0 0 -.12 484.59 662.30297)">
              <use height="100%" width="100%" xlink:href="#i"/>
              <use height="100%" width="100%" x="72.216797" xlink:href="#j"/>
              <use height="100%" width="100%" x="144.43359" xlink:href="#k"/>
              <use height="100%" width="100%" x="211.13281" xlink:href="#l"/>
              <use height="100%" width="100%" x="277.83203" xlink:href="#m"/>
              <use height="100%" width="100%" x="350.04883" xlink:href="#n"/>
              <use height="100%" width="100%" x="405.66406" xlink:href="#o"/>
              <use height="100%" width="100%" x="477.88086" xlink:href="#k"/>
              <use height="100%" width="100%" x="537.20508" xlink:href="#p"/>
              <use height="100%" width="100%" x="603.9043" xlink:href="#n"/>
              <use height="100%" width="100%" x="659.51953" xlink:href="#q"/>
              <use height="100%" width="100%" x="737.30273" xlink:href="#r"/>
              <use height="100%" width="100%" x="798.38672" xlink:href="#n"/>
              <use height="100%" width="100%" x="854.00195" xlink:href="#s"/>
              <use height="100%" width="100%" x="948.38672" xlink:href="#t"/>
              <use height="100%" width="100%" x="1015.0859" xlink:href="#t"/>
              <use height="100%" width="100%" x="1081.7852" xlink:href="#u"/>
            </g>
          </g>
        </g>
        <g>
          <path clip-path="url(#a)" d="m135 630h837" fill="none" stroke="#ccc" stroke-linecap="round"/>
          <use fill="#262626" height="100%" transform="matrix(.11 0 0 -.11 119.38297 633.9368)" width="100%" xlink:href="#v"/>
          <path clip-path="url(#a)" d="m135 554.94937h837" fill="none" stroke="#ccc" stroke-linecap="round"/>
          <g fill="#262626" transform="matrix(.11 0 0 -.11 94.914844 558.88616)">
            <use height="100%" width="100%" xlink:href="#b"/>
            <use height="100%" width="100%" x="55.615234" xlink:href="#v"/>
            <use height="100%" width="100%" x="111.23047" xlink:href="#v"/>
            <use height="100%" width="100%" x="166.8457" xlink:href="#v"/>
            <use height="100%" width="100%" x="222.46094" xlink:href="#v"/>
          </g>
          <path clip-path="url(#a)" d="m135 479.89873h837" fill="none" stroke="#ccc" stroke-linecap="round"/>
          <g fill="#262626" transform="matrix(.11 0 0 -.11 94.914844 483.83553)">
            <use height="100%" width="100%" xlink:href="#c"/>
            <use height="100%" width="100%" x="55.615234" xlink:href="#v"/>
            <use height="100%" width="100%" x="111.23047" xlink:href="#v"/>
            <use height="100%" width="100%" x="166.8457" xlink:href="#v"/>
            <use height="100%" width="100%" x="222.46094" xlink:href="#v"/>
          </g>
          <path clip-path="url(#a)" d="m135 404.8481h837" fill="none" stroke="#ccc" stroke-linecap="round"/>
          <g fill="#262626" transform="matrix(.11 0 0 -.11 94.914844 408.78489)">
            <use height="100%" width="100%" xlink:href="#d"/>
            <use height="100%" width="100%" x="55.615234" xlink:href="#v"/>
            <use height="100%" width="100%" x="111.23047" xlink:href="#v"/>
            <use height="100%" width="100%" x="166.8457" xlink:href="#v"/>
            <use height="100%" width="100%" x="222.46094" xlink:href="#v"/>
          </g>
          <path clip-path="url(#a)" d="m135 329.79746h837" fill="none" stroke="#ccc" stroke-linecap="round"/>
          <g fill="#262626" transform="matrix(.11 0 0 -.11 94.914844 333.73426)">
            <use height="100%" width="100%" xlink:href="#e"/>
            <use height="100%" width="100%" x="55.615234" xlink:href="#v"/>
            <use height="100%" width="100%" x="111.23047" xlink:href="#v"/>
            <use height="100%" width="100%" x="166.8457" xlink:href="#v"/>
            <use height="100%" width="100%" x="222.46094" xlink:href="#v"/>
          </g>
          <path clip-path="url(#a)" d="m135 254.74683h837" fill="none" stroke="#ccc" stroke-linecap="round"/>
          <g fill="#262626" transform="matrix(.11 0 0 -.11 94.914844 258.68362)">
            <use height="100%" width="100%" xlink:href="#f"/>
            <use height="100%" width="100%" x="55.615234" xlink:href="#v"/>
            <use height="100%" width="100%" x="111.23047" xlink:href="#v"/>
            <use height="100%" width="100%" x="166.8457" xlink:href="#v"/>
            <use height="100%" width="100%" x="222.46094" xlink:href="#v"/>
          </g>
          <path clip-path="url(#a)" d="m135 179.69619h837" fill="none" stroke="#ccc" stroke-linecap="round"/>
          <g fill="#262626" transform="matrix(.11 0 0 -.11 94.914844 183.63299)">
            <use height="100%" width="100%" xlink:href="#g"/>
            <use height="100%" width="100%" x="55.615234" xlink:href="#v"/>
            <use height="100%" width="100%" x="111.23047" xlink:href="#v"/>
            <use height="100%" width="100%" x="166.8457" xlink:href="#v"/>
            <use height="100%" width="100%" x="222.46094" xlink:href="#v"/>
          </g>
          <path clip-path="url(#a)" d="m135 104.64556h837" fill="none" stroke="#ccc" stroke-linecap="round"/>
          <g fill="#262626" transform="matrix(.11 0 0 -.11 94.914844 108.58236)">
            <use height="100%" width="100%" xlink:href="#h"/>
            <use height="100%" width="100%" x="55.615234" xlink:href="#v"/>
            <use height="100%" width="100%" x="111.23047" xlink:href="#v"/>
            <use height="100%" width="100%" x="166.8457" xlink:href="#v"/>
            <use height="100%" width="100%" x="222.46094" xlink:href="#v"/>
          </g>
        </g>
      </g>
      <g stroke-linejoin="miter">
        <g fill="#4c72b0" stroke="#fff">
          <path clip-path="url(#a)" d="m164.89286 630h59.78571v-354.71932h-59.78571z"/>
          <path clip-path="url(#a)" d="m284.46429 630h59.78571v-433.62005h-59.78571z"/>
          <path clip-path="url(#a)" d="m404.03571 630h59.78572v-459.49h-59.78572z"/>
          <path clip-path="url(#a)" d="m523.60714 630h59.78572v-461.05856h-59.78572z"/>
          <path clip-path="url(#a)" d="m643.17857 630h59.78572v-458.21414h-59.78572z"/>
          <path clip-path="url(#a)" d="m762.75 630h59.78571v-517.71429h-59.78571z"/>
          <path clip-path="url(#a)" d="m882.32143 630h59.78571v-449.64336h-59.78571z"/>
        </g>
        <path d="m135 630v-543.6" fill="none" stroke="#ccc" stroke-linecap="square" stroke-width="1.25"/>
        <path d="m972 630v-543.6" fill="none" stroke="#ccc" stroke-linecap="square" stroke-width="1.25"/>
        <path d="m135 630h837" fill="none" stroke="#ccc" stroke-linecap="square" stroke-width="1.25"/>
        <path d="m135 86.4h837" fill="none" stroke="#ccc" stroke-linecap="square" stroke-width="1.25"/>
      </g>
      <g fill="#262626" stroke-linejoin="round" transform="matrix(.12 0 0 -.12 484.59 80.4)">
        <use height="100%" width="100%" xlink:href="#i"/>
        <use height="100%" width="100%" x="72.216797" xlink:href="#j"/>
        <use height="100%" width="100%" x="144.43359" xlink:href="#k"/>
        <use height="100%" width="100%" x="211.13281" xlink:href="#l"/>
        <use height="100%" width="100%" x="277.83203" xlink:href="#m"/>
        <use height="100%" width="100%" x="350.04883" xlink:href="#n"/>
        <use height="100%" width="100%" x="405.66406" xlink:href="#o"/>
        <use height="100%" width="100%" x="477.88086" xlink:href="#k"/>
        <use height="100%" width="100%" x="537.20508" xlink:href="#p"/>
        <use height="100%" width="100%" x="603.9043" xlink:href="#n"/>
        <use height="100%" width="100%" x="659.51953" xlink:href="#q"/>
        <use height="100%" width="100%" x="737.30273" xlink:href="#r"/>
        <use height="100%" width="100%" x="798.38672" xlink:href="#n"/>
        <use height="100%" width="100%" x="854.00195" xlink:href="#s"/>
        <use height="100%" width="100%" x="948.38672" xlink:href="#t"/>
        <use height="100%" width="100%" x="1015.0859" xlink:href="#t"/>
        <use height="100%" width="100%" x="1081.7852" xlink:href="#u"/>
      </g>
    </g>
  </g>
</svg>
