<svg height="590.62549pt" stroke-linejoin="round" viewBox="0 0 880.59106 590.62549" width="880.59106pt" xmlns="http://www.w3.org/2000/svg" xmlns:xlink="http://www.w3.org/1999/xlink"><defs stroke-linejoin="round"><clipPath id="a" stroke-linejoin="round"><path d="m135 86.4h837v543.6h-837z"/></clipPath><path id="b" d="m4.15625 35.296875q0 12.703125 2.609375 20.4375 2.609375 7.75 7.75 11.9375 5.15625 4.203125 12.96875 4.203125 5.765625 0 10.109375-2.328125 4.34375-2.3125 7.171875-6.6875 2.84375-4.359375 4.453125-10.640625 1.609375-6.265625 1.609375-16.921875 0-12.59375-2.59375-20.328125-2.578125-7.734375-7.734375-11.96875-5.140625-4.21875-13.015625-4.21875-10.34375 0-16.25 7.421875-7.078125 8.9375-7.078125 29.09375zm9.03125 0q0-17.625 4.125-23.46875 4.125-5.828125 10.171875-5.828125 6.0625 0 10.1875 5.859375 4.125 5.859375 4.125 23.4375 0 17.6875-4.125 23.484375-4.125 5.8125-10.28125 5.8125-6.046875 0-9.671875-5.125-4.53125-6.53125-4.53125-24.171875z" stroke-linejoin="round"/><path id="c" d="m9.078125 0v10.015625h10.015625v-10.015625z" stroke-linejoin="round"/><path id="d" d="m4.15625 18.75 9.21875.78125q1.03125-6.734375 4.765625-10.140625 3.734375-3.390625 9.015625-3.390625 6.34375 0 10.734375 4.78125 4.390625 4.796875 4.390625 12.703125 0 7.515625-4.21875 11.859375-4.21875 4.359375-11.0625 4.359375-4.25 0-7.671875-1.9375-3.40625-1.921875-5.359375-5l-8.25 1.078125 6.921875 36.765625h35.609375v-8.40625h-28.578125l-3.84375-19.234375q6.4375 4.5 13.515625 4.5 9.375 0 15.8125-6.5 6.453125-6.5 6.453125-16.703125 0-9.71875-5.65625-16.796875-6.890625-8.6875-18.796875-8.6875-9.765625 0-15.953125 5.46875-6.171875 5.46875-7.046875 14.5z" stroke-linejoin="round"/><path id="e" d="m37.25 0h-8.78125v56q-3.171875-3.015625-8.328125-6.046875-5.15625-3.03125-9.25-4.546875v8.5q7.375 3.46875 12.890625 8.390625 5.515625 4.9375 7.8125 9.578125h5.65625z" stroke-linejoin="round"/><path id="f" d="m7.71875 0v71.578125h24.65625q8.34375 0 12.75-1.015625 6.140625-1.421875 10.484375-5.125 5.671875-4.796875 8.46875-12.25 2.8125-7.4375 2.8125-17 0-8.15625-1.90625-14.453125-1.890625-6.296875-4.875-10.4375-2.984375-4.125-6.53125-6.5-3.53125-2.359375-8.53125-3.578125-5-1.21875-11.5-1.21875zm9.46875 8.453125h15.28125q7.078125 0 11.109375 1.3125 4.03125 1.3125 6.421875 3.71875 3.375 3.359375 5.25 9.046875 1.875 5.6875 1.875 13.796875 0 11.234375-3.6875 17.265625-3.6875 6.03125-8.953125 8.078125-3.8125 1.46875-12.25 1.46875h-15.046875z" stroke-linejoin="round"/><path id="g" d="m6.640625 61.46875v10.109375h8.796875v-10.109375zm0-61.46875v51.859375h8.796875v-51.859375z" stroke-linejoin="round"/><path id="h" d="m3.078125 15.484375 8.6875 1.359375q.734375-5.21875 4.078125-8 3.34375-2.78125 9.359375-2.78125 6.046875 0 8.96875 2.453125 2.9375 2.46875 2.9375 5.796875 0 2.96875-2.59375 4.6875-1.796875 1.171875-8.984375 2.96875-9.65625 2.453125-13.390625 4.234375-3.734375 1.78125-5.671875 4.921875-1.921875 3.15625-1.921875 6.96875 0 3.453125 1.578125 6.40625 1.59375 2.96875 4.328125 4.921875 2.046875 1.5 5.578125 2.546875 3.546875 1.0625 7.609375 1.0625 6.09375 0 10.703125-1.765625 4.625-1.75 6.8125-4.765625 2.203125-3 3.03125-8.015625l-8.59375-1.171875q-.578125 4-3.390625 6.234375-2.8125 2.25-7.9375 2.25-6.046875 0-8.640625-2-2.59375-2-2.59375-4.6875 0-1.703125 1.078125-3.078125 1.078125-1.40625 3.375-2.34375 1.3125-.484375 7.765625-2.234375 9.328125-2.5 13-4.09375 3.6875-1.578125 5.78125-4.609375 2.109375-3.015625 2.109375-7.515625 0-4.390625-2.5625-8.28125-2.5625-3.875-7.40625-6-4.828125-2.125-10.921875-2.125-10.109375 0-15.40625 4.203125-5.296875 4.203125-6.765625 12.453125z" stroke-linejoin="round"/><path id="i" d="m25.78125 7.859375 1.265625-7.765625q-3.703125-.78125-6.640625-.78125-4.78125 0-7.421875 1.515625-2.625 1.515625-3.703125 3.984375-1.078125 2.46875-1.078125 10.375v29.828125h-6.4375v6.84375h6.4375v12.84375l8.734375 5.265625v-18.109375h8.84375v-6.84375h-8.84375v-30.3125q0-3.765625.46875-4.84375.46875-1.0625 1.515625-1.703125 1.046875-.640625 3-.640625 1.46875 0 3.859375.34375z" stroke-linejoin="round"/><path id="j" d="m40.4375 6.390625q-4.890625-4.140625-9.40625-5.859375-4.515625-1.703125-9.6875-1.703125-8.546875 0-13.140625 4.171875-4.59375 4.171875-4.59375 10.671875 0 3.8125 1.734375 6.953125 1.734375 3.15625 4.546875 5.0625 2.8125 1.90625 6.328125 2.875 2.578125.6875 7.8125 1.328125 10.640625 1.265625 15.671875 3.015625.04687 1.8125.04687 2.296875 0 5.375-2.5 7.578125-3.359375 2.96875-10 2.96875-6.203125 0-9.15625-2.171875-2.953125-2.171875-4.375-7.6875l-8.593745 1.171875q1.171875 5.515625 3.859375 8.90625 2.6875 3.390625 7.765625 5.21875 5.078125 1.84375 11.765625 1.84375 6.640625 0 10.78125-1.5625 4.15625-1.5625 6.109375-3.9375 1.953125-2.359375 2.734375-5.984375.4375-2.234375.4375-8.09375v-11.71875q0-12.265625.5625-15.515625.5625-3.234375 2.234375-6.21875h-9.1875q-1.359375 2.734375-1.75 6.390625zm-.734375 19.640625q-4.796875-1.953125-14.359375-3.328125-5.421875-.78125-7.671875-1.765625-2.234375-.96875-3.46875-2.84375-1.21875-1.875-1.21875-4.171875 0-3.515625 2.65625-5.859375 2.671875-2.34375 7.796875-2.34375 5.078125 0 9.03125 2.21875 3.953125 2.21875 5.8125 6.078125 1.421875 2.984375 1.421875 8.78125z" stroke-linejoin="round"/><path id="k" d="m6.59375 0v51.859375h7.90625v-7.375q5.71875 8.546875 16.5 8.546875 4.6875 0 8.625-1.6875 3.9375-1.6875 5.890625-4.421875 1.953125-2.734375 2.734375-6.484375.484375-2.453125.484375-8.546875v-31.890625h-8.796875v31.546875q0 5.375-1.03125 8.03125-1.015625 2.65625-3.625 4.234375-2.609375 1.59375-6.125 1.59375-5.625 0-9.703125-3.5625-4.078125-3.5625-4.078125-13.515625v-28.328125z" stroke-linejoin="round"/><path id="l" d="m40.4375 19 8.640625-1.125q-1.421875-8.9375-7.265625-14-5.828125-5.046875-14.328125-5.046875-10.640625 0-17.109375 6.953125-6.46875 6.96875-6.46875 19.953125 0 8.390625 2.78125 14.6875 2.78125 6.3125 8.46875 9.453125 5.6875 3.15625 12.390625 3.15625 8.4375 0 13.8125-4.28125 5.375-4.265625 6.890625-12.125l-8.546875-1.328125q-1.21875 5.234375-4.328125 7.859375-3.09375 2.640625-7.5 2.640625-6.640625 0-10.796875-4.765625-4.140625-4.75-4.140625-15.046875 0-10.453125 4-15.1875 4.015625-4.734375 10.453125-4.734375 5.171875 0 8.640625 3.171875 3.46875 3.171875 4.40625 9.765625z" stroke-linejoin="round"/><path id="m" d="m42.09375 16.703125 9.078125-1.125q-2.140625-7.953125-7.953125-12.359375-5.8125-4.390625-14.84375-4.390625-11.375 0-18.046875 7-6.671875 7.015625-6.671875 19.65625 0 13.09375 6.734375 20.3125 6.75 7.234375 17.484375 7.234375 10.40625 0 17-7.078125 6.59375-7.078125 6.59375-19.921875 0-.78125-.04687-2.34375h-38.67188q.484375-8.546875 4.828125-13.09375 4.34375-4.53125 10.84375-4.53125 4.828125 0 8.25 2.53125 3.421875 2.546875 5.421875 8.109375zm-28.859375 14.203125h28.953125q-.578125 6.546875-3.3125 9.8125-4.203125 5.078125-10.890625 5.078125-6.0625 0-10.1875-4.046875-4.125-4.046875-4.5625-10.84375z" stroke-linejoin="round"/><path id="n" d="m8.6875 0v45.015625h-7.765625v6.84375h7.765625v5.515625q0 5.21875.9375 7.765625 1.265625 3.421875 4.453125 5.53125 3.203125 2.125 8.96875 2.125 3.71875 0 8.203125-.875l-1.3125-7.65625q-2.734375.484375-5.1875.484375-4 0-5.65625-1.71875-1.65625-1.703125-1.65625-6.390625v-4.78125h10.109375v-6.84375h-10.109375v-45.015625z" stroke-linejoin="round"/><path id="o" d="m6.5 0v51.859375h7.90625v-7.859375q3.03125 5.515625 5.59375 7.265625 2.5625 1.765625 5.640625 1.765625 4.4375 0 9.03125-2.828125l-3.03125-8.15625q-3.21875 1.90625-6.4375 1.90625-2.890625 0-5.1875-1.734375-2.296875-1.734375-3.265625-4.8125-1.46875-4.6875-1.46875-10.25v-27.15625z" stroke-linejoin="round"/><path id="p" d="m3.328125 25.921875q0 14.40625 8 21.34375 6.6875 5.765625 16.3125 5.765625 10.6875 0 17.46875-7.015625 6.796875-7 6.796875-19.359375 0-10-3-15.75-3-5.734375-8.75-8.90625-5.734375-3.171875-12.515625-3.171875-10.890625 0-17.609375 6.984375-6.703125 6.984375-6.703125 20.109375zm9.03125 0q0-9.953125 4.34375-14.90625 4.34375-4.953125 10.9375-4.953125 6.546875 0 10.890625 4.96875 4.34375 4.984375 4.34375 15.1875 0 9.625-4.375 14.578125-4.375 4.953125-10.859375 4.953125-6.59375 0-10.9375-4.9375-4.34375-4.921875-4.34375-14.890625z" stroke-linejoin="round"/><path id="q" d="m6.59375 0v51.859375h7.859375v-7.28125q2.4375 3.8125 6.484375 6.125 4.0625 2.328125 9.234375 2.328125 5.765625 0 9.453125-2.390625 3.6875-2.390625 5.203125-6.6875 6.15625 9.078125 16.015625 9.078125 7.71875 0 11.859375-4.28125 4.15625-4.265625 4.15625-13.15625v-35.59375h-8.75v32.671875q0 5.265625-.859375 7.578125-.84375 2.328125-3.09375 3.734375-2.234375 1.421875-5.265625 1.421875-5.46875 0-9.09375-3.640625-3.609375-3.625-3.609375-11.640625v-30.125h-8.78125v33.6875q0 5.859375-2.15625 8.78125-2.140625 2.9375-7.03125 2.9375-3.703125 0-6.859375-1.953125-3.140625-1.953125-4.5625-5.71875-1.421875-3.75-1.421875-10.828125v-26.90625z" stroke-linejoin="round"/><path id="r" d="m6.59375 0v71.578125h8.78125v-25.671875q6.15625 7.125 15.53125 7.125 5.765625 0 10.015625-2.28125 4.25-2.265625 6.078125-6.265625 1.828125-4 1.828125-11.625v-32.859375h-8.78125v32.859375q0 6.59375-2.859375 9.59375-2.859375 3-8.078125 3-3.90625 0-7.359375-2.03125-3.4375-2.015625-4.90625-5.484375-1.46875-3.46875-1.46875-9.5625v-28.375z" stroke-linejoin="round"/><path id="s" d="m40.234375 0v6.546875q-4.9375-7.71875-14.5-7.71875-6.203125 0-11.40625 3.421875-5.203125 3.421875-8.0625 9.546875-2.84375 6.125-2.84375 14.078125 0 7.765625 2.578125 14.09375 2.59375 6.328125 7.765625 9.6875 5.1875 3.375 11.578125 3.375 4.6875 0 8.34375-1.984375 3.671875-1.96875 5.96875-5.140625v25.671875h8.734375v-71.578125zm-27.78125 25.875q0-9.953125 4.1875-14.890625 4.203125-4.921875 9.921875-4.921875 5.765625 0 9.78125 4.703125 4.03125 4.71875 4.03125 14.375 0 10.65625-4.109375 15.625-4.09375 4.984375-10.09375 4.984375-5.859375 0-9.796875-4.78125-3.921875-4.78125-3.921875-15.09375z" stroke-linejoin="round"/><path id="t" d="m6.390625 0v71.578125h8.796875v-71.578125z" stroke-linejoin="round"/><path id="u" d="m50.34375 8.453125v-8.453125h-47.3125q-.09375 3.171875 1.015625 6.109375 1.8125 4.828125 5.78125 9.515625 3.984375 4.6875 11.515625 10.84375 11.671875 9.5625 15.765625 15.15625 4.109375 5.59375 4.109375 10.578125 0 5.21875-3.75 8.796875-3.734375 3.59375-9.734375 3.59375-6.34375 0-10.15625-3.8125-3.8125-3.796875-3.859375-10.53125l-9.03125.921875q.921875 10.109375 6.96875 15.40625 6.0625 5.296875 16.28125 5.296875 10.296875 0 16.296875-5.71875 6.015625-5.703125 6.015625-14.15625 0-4.296875-1.765625-8.453125-1.75-4.140625-5.828125-8.734375-4.078125-4.59375-13.546875-12.59375-7.921875-6.640625-10.171875-9.015625-2.234375-2.359375-3.703125-4.75z" stroke-linejoin="round"/><path id="v" d="m4.734375 62.203125v8.453125h46.34375v-6.84375q-6.84375-7.265625-13.5625-19.328125-6.703125-12.0625-10.359375-24.8125-2.640625-8.984375-3.375-19.671875h-9.03125q.140625 8.453125 3.3125 20.40625 3.171875 11.96875 9.109375 23.078125 5.9375 11.109375 12.625 18.71875z" stroke-linejoin="round"/></defs><g stroke-linejoin="round" transform="translate(-92.033906 -71.664375)"><path d="m0 720h1080v-720h-1080z" fill="none"/><g stroke-linejoin="round"><path d="m135 630h837v-543.6h-837z" fill="none"/><g><path clip-path="url(#a)" d="m210.47854 630v-543.6" fill="none" stroke="#ccc" stroke-linecap="round"/><g fill="#262626" transform="matrix(.11 0 0 -.11 193.50416 647.37359)"><path d="m52.828125 31.203125h-47.265625v8.203125h47.265625z"/><use height="100%" width="100%" x="58.398438" xlink:href="#b"/><use height="100%" width="100%" x="114.01367" xlink:href="#c"/><use height="100%" width="100%" x="141.79688" xlink:href="#b"/><use height="100%" width="100%" x="197.41211" xlink:href="#b"/><use height="100%" width="100%" x="253.02734" xlink:href="#d"/></g><path clip-path="url(#a)" d="m363.27268 630v-543.6" fill="none" stroke="#ccc" stroke-linecap="round"/><g fill="#262626" transform="matrix(.11 0 0 -.11 349.51065 647.37359)"><use height="100%" width="100%" xlink:href="#b"/><use height="100%" width="100%" x="55.615234" xlink:href="#c"/><use height="100%" width="100%" x="83.398438" xlink:href="#b"/><use height="100%" width="100%" x="139.01367" xlink:href="#b"/><use height="100%" width="100%" x="194.62891" xlink:href="#b"/></g><path clip-path="url(#a)" d="m516.06683 630v-543.6" fill="none" stroke="#ccc" stroke-linecap="round"/><g fill="#262626" transform="matrix(.11 0 0 -.11 502.3048 647.37359)"><use height="100%" width="100%" xlink:href="#b"/><use height="100%" width="100%" x="55.615234" xlink:href="#c"/><use height="100%" width="100%" x="83.398438" xlink:href="#b"/><use height="100%" width="100%" x="139.01367" xlink:href="#b"/><use height="100%" width="100%" x="194.62891" xlink:href="#d"/></g><path clip-path="url(#a)" d="m668.86098 630v-543.6" fill="none" stroke="#ccc" stroke-linecap="round"/><g fill="#262626" transform="matrix(.11 0 0 -.11 655.09895 647.37359)"><use height="100%" width="100%" xlink:href="#b"/><use height="100%" width="100%" x="55.615234" xlink:href="#c"/><use height="100%" width="100%" x="83.398438" xlink:href="#b"/><use height="100%" width="100%" x="139.01367" xlink:href="#e"/><use height="100%" width="100%" x="194.62891" xlink:href="#b"/></g><path clip-path="url(#a)" d="m821.65513 630v-543.6" fill="none" stroke="#ccc" stroke-linecap="round"/><g fill="#262626"><g transform="matrix(.11 0 0 -.11 807.8931 647.37359)"><use height="100%" width="100%" xlink:href="#b"/><use height="100%" width="100%" x="55.615234" xlink:href="#c"/><use height="100%" width="100%" x="83.398438" xlink:href="#b"/><use height="100%" width="100%" x="139.01367" xlink:href="#e"/><use height="100%" width="100%" x="194.62891" xlink:href="#d"/></g><g transform="matrix(.12 0 0 -.12 430.44375 662.14922)"><use height="100%" width="100%" xlink:href="#f"/><use height="100%" width="100%" x="72.216797" xlink:href="#g"/><use height="100%" width="100%" x="94.433594" xlink:href="#h"/><use height="100%" width="100%" x="144.43359" xlink:href="#i"/><use height="100%" width="100%" x="172.2168" xlink:href="#j"/><use height="100%" width="100%" x="227.83203" xlink:href="#k"/><use height="100%" width="100%" x="283.44727" xlink:href="#l"/><use height="100%" width="100%" x="333.44727" xlink:href="#m"/><use height="100%" width="100%" x="416.8457" xlink:href="#n"/><use height="100%" width="100%" x="444.62891" xlink:href="#o"/><use height="100%" width="100%" x="477.92969" xlink:href="#p"/><use height="100%" width="100%" x="533.54492" xlink:href="#q"/><use height="100%" width="100%" x="644.62891" xlink:href="#m"/><use height="100%" width="100%" x="700.24414" xlink:href="#j"/><use height="100%" width="100%" x="755.85938" xlink:href="#l"/><use height="100%" width="100%" x="805.85938" xlink:href="#r"/><use height="100%" width="100%" x="889.25781" xlink:href="#j"/><use height="100%" width="100%" x="944.87305" xlink:href="#l"/><use height="100%" width="100%" x="994.87305" xlink:href="#l"/><use height="100%" width="100%" x="1044.873" xlink:href="#g"/><use height="100%" width="100%" x="1067.0898" xlink:href="#s"/><use height="100%" width="100%" x="1122.7051" xlink:href="#m"/><use height="100%" width="100%" x="1178.3203" xlink:href="#k"/><use height="100%" width="100%" x="1233.9355" xlink:href="#i"/><use height="100%" width="100%" x="1289.502" xlink:href="#i"/><use height="100%" width="100%" x="1317.2852" xlink:href="#p"/><use height="100%" width="100%" x="1400.6836" xlink:href="#k"/><use height="100%" width="100%" x="1456.2988" xlink:href="#m"/><use height="100%" width="100%" x="1511.9141" xlink:href="#j"/><use height="100%" width="100%" x="1567.5293" xlink:href="#o"/><use height="100%" width="100%" x="1600.8301" xlink:href="#m"/><use height="100%" width="100%" x="1656.4453" xlink:href="#h"/><use height="100%" width="100%" x="1706.4453" xlink:href="#i"/><use height="100%" width="100%" x="1762.0117" xlink:href="#h"/><use height="100%" width="100%" x="1812.0117" xlink:href="#l"/><use height="100%" width="100%" x="1862.0117" xlink:href="#r"/><use height="100%" width="100%" x="1917.627" xlink:href="#p"/><use height="100%" width="100%" x="1973.2422" xlink:href="#p"/><use height="100%" width="100%" x="2028.8574" xlink:href="#t"/></g></g></g><g><path clip-path="url(#a)" d="m135 605.29091h837" fill="none" stroke="#ccc" stroke-linecap="round"/><use fill="#262626" height="100%" transform="matrix(.11 0 0 -.11 119.38297 609.22771)" width="100%" xlink:href="#b"/><path clip-path="url(#a)" d="m135 535.91368h837" fill="none" stroke="#ccc" stroke-linecap="round"/><g fill="#262626" transform="matrix(.11 0 0 -.11 113.26594 539.85048)"><use height="100%" width="100%" xlink:href="#u"/><use height="100%" width="100%" x="55.615234" xlink:href="#d"/></g><path clip-path="url(#a)" d="m135 466.53646h837" fill="none" stroke="#ccc" stroke-linecap="round"/><g fill="#262626" transform="matrix(.11 0 0 -.11 113.26594 470.47326)"><use height="100%" width="100%" xlink:href="#d"/><use height="100%" width="100%" x="55.615234" xlink:href="#b"/></g><path clip-path="url(#a)" d="m135 397.15924h837" fill="none" stroke="#ccc" stroke-linecap="round"/><g fill="#262626" transform="matrix(.11 0 0 -.11 113.26594 401.09603)"><use height="100%" width="100%" xlink:href="#v"/><use height="100%" width="100%" x="55.615234" xlink:href="#d"/></g><path clip-path="url(#a)" d="m135 327.78201h837" fill="none" stroke="#ccc" stroke-linecap="round"/><g fill="#262626" transform="matrix(.11 0 0 -.11 107.14891 331.71881)"><use height="100%" width="100%" xlink:href="#e"/><use height="100%" width="100%" x="55.615234" xlink:href="#b"/><use height="100%" width="100%" x="111.23047" xlink:href="#b"/></g><path clip-path="url(#a)" d="m135 258.40479h837" fill="none" stroke="#ccc" stroke-linecap="round"/><g fill="#262626" transform="matrix(.11 0 0 -.11 107.14891 262.34158)"><use height="100%" width="100%" xlink:href="#e"/><use height="100%" width="100%" x="55.615234" xlink:href="#u"/><use height="100%" width="100%" x="111.23047" xlink:href="#d"/></g><path clip-path="url(#a)" d="m135 189.02756h837" fill="none" stroke="#ccc" stroke-linecap="round"/><g fill="#262626" transform="matrix(.11 0 0 -.11 107.14891 192.96436)"><use height="100%" width="100%" xlink:href="#e"/><use height="100%" width="100%" x="55.615234" xlink:href="#d"/><use height="100%" width="100%" x="111.23047" xlink:href="#b"/></g><path clip-path="url(#a)" d="m135 119.65034h837" fill="none" stroke="#ccc" stroke-linecap="round"/><g fill="#262626"><g transform="matrix(.11 0 0 -.11 107.14891 123.58713)"><use height="100%" width="100%" xlink:href="#e"/><use height="100%" width="100%" x="55.615234" xlink:href="#v"/><use height="100%" width="100%" x="111.23047" xlink:href="#d"/></g><g transform="matrix(0 -.12 -.12 0 100.62328 378.20625)"><use height="100%" width="100%" xlink:href="#f"/><use height="100%" width="100%" x="72.216797" xlink:href="#m"/><use height="100%" width="100%" x="127.83203" xlink:href="#k"/><use height="100%" width="100%" x="183.44727" xlink:href="#h"/><use height="100%" width="100%" x="233.44727" xlink:href="#g"/><use height="100%" width="100%" x="255.66406" xlink:href="#i"/><path d="m6.203125-19.96875-.984375 8.25q2.890625-.78125 5.03125-.78125 2.9375 0 4.6875.984375 1.765625.96875 2.890625 2.71875.828125 1.328125 2.6875 6.546875.234375.734375.78125 2.15625l-19.6875 51.953125h9.46875l10.796875-30.03125q2.09375-5.71875 3.765625-12.015625 1.515625 6.0625 3.609375 11.8125l11.078125 30.234375h8.796875l-19.734375-52.734375q-3.171875-8.546875-4.921875-11.765625-2.34375-4.359375-5.375-6.375-3.03125-2.03125-7.234375-2.03125-2.53125 0-5.65625 1.078125z" transform="translate(283.44727)"/></g></g></g></g><g fill="none"><path clip-path="url(#a)" d="m173.04545 605.29091 118.82064-.10828 7.61671-.25637 4.57003-.34747 3.80835-.49087 3.04668-.58784 3.04668-.8251 2.28502-.81751 2.28501-1.0265 2.28501-1.27441 2.28501-1.5646 2.28502-1.89977 2.28501-2.28182 2.28501-2.71159 2.28501-3.18875 2.28502-3.71176 2.28501-4.2778 2.28501-4.88281 2.28501-5.52174 2.28501-6.18866 2.28502-6.87706 2.28501-7.58018 2.28501-8.29128 2.28501-9.00388 3.04669-13.10524 3.04668-14.33871 3.04668-15.5331 3.04669-16.67615 3.04668-17.75622 3.80835-23.59699 3.80836-24.98023 4.57002-31.46284 6.85504-49.04919 7.61671-54.2842 3.80835-25.76614 3.04668-19.43797 3.04669-18.10695 3.04668-16.55398 2.28501-11.29429 2.28501-10.28108 2.28502-9.24594 2.28501-8.2125 2.28501-7.20369 2.28501-6.24036 2.28501-5.34028 1.52335-3.09775 1.52334-2.757 1.52334-2.44264 1.52334-2.15511 1.52334-1.89423 2.28501-2.40827 2.28502-1.95964 2.28501-1.58093 2.28501-1.25874 2.28501-.97813 2.28502-.72389 2.28501-.48149 2.28501-.23823 2.28501.0162 2.28502.28902 2.28501.58456 2.28501.90402 2.28501 1.24607 2.28501 1.60724 2.28502 1.98267 2.28501 2.36676 2.28501 2.75377 2.28501 3.13842 2.28502 3.5163 2.28501 3.88416 2.28501 4.24002 3.04668 6.18519 3.04669 6.76778 3.04668 7.32924 3.04668 7.87959 3.04669 8.43115 3.04668 8.99696 3.04668 9.58899 3.04668 10.21612 3.04669 10.88187 3.04668 11.58229 3.04668 12.30428 3.80836 16.39086 3.80835 17.44036 4.57003 22.06619 8.37837 42.00235 5.3317 26.16202 3.80835 17.6547 3.04669 13.23541 3.04668 12.30222 3.04668 11.28365 3.04669 10.22422 2.28501 6.97126 2.28501 6.38663 2.28501 5.82258 2.28501 5.28507 2.28502 4.77797 2.28501 4.3032 2.28501 3.86129 2.28501 3.4517 2.28502 3.07353 2.28501 2.72582 2.28501 2.40818 2.28501 2.1209 2.28502 1.86529 3.04668 2.14855 3.04668 1.84432 3.80836 2.03376 6.85503 3.60054 3.04669 1.88814 2.28501 1.64382 2.28501 1.89296 2.28501 2.18381 2.28502 2.50803 2.28501 2.85563 2.28501 3.21533 2.28501 3.57515 2.28501 3.92281 3.04669 5.72805 3.04668 6.21527 3.80835 8.27653 12.94841 28.78532 3.04668 6.14562 3.04668 5.68625 3.04669 5.16487 2.28501 3.50902 2.28501 3.18916 2.28501 2.87038 2.28502 2.55873 2.28501 2.25932 2.28501 1.97609 2.28501 1.71196 2.28501 1.46885 2.28502 1.24773 2.28501 1.04879 3.04668 1.12622 3.04669.85919 3.04668.63546 3.80835.53588 3.80836.30285 4.57002.11655 4.57003-.10468 5.33169-.35644 6.09337-.6622 7.6167-1.08212 9.90172-1.40756 5.3317-.52098 4.57002-.21517 4.57003.0315 4.57002.27387 5.3317.57437 7.61671 1.09956 10.66339 1.53128 6.85503.73346 6.85504.4882 7.61671.3059 10.66339.17379 21.32678.0549 105.87224.002" stroke="#4c72b0" stroke-linecap="round" stroke-linejoin="round" stroke-width="1.5"/><g stroke="#ccc" stroke-linecap="square" stroke-linejoin="miter" stroke-width="1.25"><path d="m135 630v-543.6"/><path d="m972 630v-543.6"/><path d="m135 630h837"/><path d="m135 86.4h837"/></g></g><g fill="#262626" stroke-linejoin="round" transform="matrix(.12 0 0 -.12 387.42094 80.4)"><path d="m7.328125 0v71.578125h9.46875v-35.5l35.546875 35.5h12.84375l-30.03125-29 31.34375-42.578125h-12.5l-25.484375 36.234375-11.71875-11.421875v-24.8125z"/><use height="100%" width="100%" x="66.699219" xlink:href="#f"/><path d="m7.90625 0v71.578125h51.765625v-8.4375h-42.28125v-21.921875h39.59375v-8.40625h-39.59375v-24.359375h43.9375v-8.453125z" transform="translate(138.91602)"/><path d="m6.59375-19.875v71.734375h8v-6.734375q2.84375 3.953125 6.40625 5.921875 3.5625 1.984375 8.640625 1.984375 6.640625 0 11.71875-3.421875 5.078125-3.421875 7.65625-9.65625 2.59375-6.21875 2.59375-13.640625 0-7.953125-2.859375-14.328125-2.84375-6.375-8.296875-9.765625-5.4375-3.390625-11.453125-3.390625-4.390625 0-7.890625 1.859375-3.484375 1.859375-5.734375 4.6875v-25.25zm7.953125 45.515625q0-10.015625 4.046875-14.796875 4.0625-4.78125 9.828125-4.78125 5.859375 0 10.03125 4.953125 4.171875 4.953125 4.171875 15.359375 0 9.90625-4.078125 14.828125-4.078125 4.9375-9.734375 4.9375-5.625 0-9.953125-5.25-4.3125-5.25-4.3125-15.25z" transform="translate(233.39844)"/><use height="100%" width="100%" x="289.01367" xlink:href="#t"/><use height="100%" width="100%" x="311.23047" xlink:href="#p"/><use height="100%" width="100%" x="366.8457" xlink:href="#i"/><use height="100%" width="100%" x="422.41211" xlink:href="#n"/><use height="100%" width="100%" x="450.19531" xlink:href="#p"/><use height="100%" width="100%" x="505.81055" xlink:href="#o"/><use height="100%" width="100%" x="566.89453" xlink:href="#i"/><use height="100%" width="100%" x="594.67773" xlink:href="#r"/><use height="100%" width="100%" x="650.29297" xlink:href="#m"/><use height="100%" width="100%" x="733.69141" xlink:href="#s"/><use height="100%" width="100%" x="789.30664" xlink:href="#g"/><use height="100%" width="100%" x="811.52344" xlink:href="#h"/><use height="100%" width="100%" x="861.52344" xlink:href="#i"/><use height="100%" width="100%" x="889.30664" xlink:href="#j"/><use height="100%" width="100%" x="944.92188" xlink:href="#k"/><use height="100%" width="100%" x="1000.5371" xlink:href="#l"/><use height="100%" width="100%" x="1050.5371" xlink:href="#m"/><use height="100%" width="100%" x="1133.9355" xlink:href="#n"/><use height="100%" width="100%" x="1161.7188" xlink:href="#o"/><use height="100%" width="100%" x="1195.0195" xlink:href="#p"/><use height="100%" width="100%" x="1250.6348" xlink:href="#q"/><use height="100%" width="100%" x="1361.7188" xlink:href="#m"/><use height="100%" width="100%" x="1417.334" xlink:href="#j"/><use height="100%" width="100%" x="1472.9492" xlink:href="#l"/><use height="100%" width="100%" x="1522.9492" xlink:href="#r"/><use height="100%" width="100%" x="1606.3477" xlink:href="#j"/><use height="100%" width="100%" x="1661.9629" xlink:href="#l"/><use height="100%" width="100%" x="1711.9629" xlink:href="#l"/><use height="100%" width="100%" x="1761.9629" xlink:href="#g"/><use height="100%" width="100%" x="1784.1797" xlink:href="#s"/><use height="100%" width="100%" x="1839.7949" xlink:href="#m"/><use height="100%" width="100%" x="1895.4102" xlink:href="#k"/><use height="100%" width="100%" x="1951.0254" xlink:href="#i"/><use height="100%" width="100%" x="2006.5918" xlink:href="#i"/><use height="100%" width="100%" x="2034.375" xlink:href="#p"/><use height="100%" width="100%" x="2117.7734" xlink:href="#k"/><use height="100%" width="100%" x="2173.3887" xlink:href="#m"/><use height="100%" width="100%" x="2229.0039" xlink:href="#j"/><use height="100%" width="100%" x="2284.6191" xlink:href="#o"/><use height="100%" width="100%" x="2317.9199" xlink:href="#m"/><use height="100%" width="100%" x="2373.5352" xlink:href="#h"/><use height="100%" width="100%" x="2423.5352" xlink:href="#i"/><use height="100%" width="100%" x="2479.1016" xlink:href="#h"/><use height="100%" width="100%" x="2529.1016" xlink:href="#l"/><use height="100%" width="100%" x="2579.1016" xlink:href="#r"/><use height="100%" width="100%" x="2634.7168" xlink:href="#p"/><use height="100%" width="100%" x="2690.332" xlink:href="#p"/><use height="100%" width="100%" x="2745.9473" xlink:href="#t"/></g></g></svg>