<svg height="575.84845pt" stroke-linejoin="round" viewBox="0 0 883.64703 575.84845" width="883.64703pt" xmlns="http://www.w3.org/2000/svg" xmlns:xlink="http://www.w3.org/1999/xlink"><defs stroke-linejoin="round"><clipPath id="a" stroke-linejoin="round"><path d="m135 86.4h837v543.6h-837z"/></clipPath><path id="b" d="m37.25 0h-8.78125v56q-3.171875-3.015625-8.328125-6.046875-5.15625-3.03125-9.25-4.546875v8.5q7.375 3.46875 12.890625 8.390625 5.515625 4.9375 7.8125 9.578125h5.65625z" stroke-linejoin="round"/><path id="c" d="m4.15625 35.296875q0 12.703125 2.609375 20.4375 2.609375 7.75 7.75 11.9375 5.15625 4.203125 12.96875 4.203125 5.765625 0 10.109375-2.328125 4.34375-2.3125 7.171875-6.6875 2.84375-4.359375 4.453125-10.640625 1.609375-6.265625 1.609375-16.921875 0-12.59375-2.59375-20.328125-2.578125-7.734375-7.734375-11.96875-5.140625-4.21875-13.015625-4.21875-10.34375 0-16.25 7.421875-7.078125 8.9375-7.078125 29.09375zm9.03125 0q0-17.625 4.125-23.46875 4.125-5.828125 10.171875-5.828125 6.0625 0 10.1875 5.859375 4.125 5.859375 4.125 23.4375 0 17.6875-4.125 23.484375-4.125 5.8125-10.28125 5.8125-6.046875 0-9.671875-5.125-4.53125-6.53125-4.53125-24.171875z" stroke-linejoin="round"/><path id="d" d="m50.34375 8.453125v-8.453125h-47.3125q-.09375 3.171875 1.015625 6.109375 1.8125 4.828125 5.78125 9.515625 3.984375 4.6875 11.515625 10.84375 11.671875 9.5625 15.765625 15.15625 4.109375 5.59375 4.109375 10.578125 0 5.21875-3.75 8.796875-3.734375 3.59375-9.734375 3.59375-6.34375 0-10.15625-3.8125-3.8125-3.796875-3.859375-10.53125l-9.03125.921875q.921875 10.109375 6.96875 15.40625 6.0625 5.296875 16.28125 5.296875 10.296875 0 16.296875-5.71875 6.015625-5.703125 6.015625-14.15625 0-4.296875-1.765625-8.453125-1.75-4.140625-5.828125-8.734375-4.078125-4.59375-13.546875-12.59375-7.921875-6.640625-10.171875-9.015625-2.234375-2.359375-3.703125-4.75z" stroke-linejoin="round"/><path id="e" d="m9.078125 0v10.015625h10.015625v-10.015625z" stroke-linejoin="round"/><path id="f" d="m7.71875 0v71.578125h24.65625q8.34375 0 12.75-1.015625 6.140625-1.421875 10.484375-5.125 5.671875-4.796875 8.46875-12.25 2.8125-7.4375 2.8125-17 0-8.15625-1.90625-14.453125-1.890625-6.296875-4.875-10.4375-2.984375-4.125-6.53125-6.5-3.53125-2.359375-8.53125-3.578125-5-1.21875-11.5-1.21875zm9.46875 8.453125h15.28125q7.078125 0 11.109375 1.3125 4.03125 1.3125 6.421875 3.71875 3.375 3.359375 5.25 9.046875 1.875 5.6875 1.875 13.796875 0 11.234375-3.6875 17.265625-3.6875 6.03125-8.953125 8.078125-3.8125 1.46875-12.25 1.46875h-15.046875z" stroke-linejoin="round"/><path id="g" d="m42.09375 16.703125 9.078125-1.125q-2.140625-7.953125-7.953125-12.359375-5.8125-4.390625-14.84375-4.390625-11.375 0-18.046875 7-6.671875 7.015625-6.671875 19.65625 0 13.09375 6.734375 20.3125 6.75 7.234375 17.484375 7.234375 10.40625 0 17-7.078125 6.59375-7.078125 6.59375-19.921875 0-.78125-.04687-2.34375h-38.67188q.484375-8.546875 4.828125-13.09375 4.34375-4.53125 10.84375-4.53125 4.828125 0 8.25 2.53125 3.421875 2.546875 5.421875 8.109375zm-28.859375 14.203125h28.953125q-.578125 6.546875-3.3125 9.8125-4.203125 5.078125-10.890625 5.078125-6.0625 0-10.1875-4.046875-4.125-4.046875-4.5625-10.84375z" stroke-linejoin="round"/><path id="h" d="m6.59375 0v51.859375h7.90625v-7.375q5.71875 8.546875 16.5 8.546875 4.6875 0 8.625-1.6875 3.9375-1.6875 5.890625-4.421875 1.953125-2.734375 2.734375-6.484375.484375-2.453125.484375-8.546875v-31.890625h-8.796875v31.546875q0 5.375-1.03125 8.03125-1.015625 2.65625-3.625 4.234375-2.609375 1.59375-6.125 1.59375-5.625 0-9.703125-3.5625-4.078125-3.5625-4.078125-13.515625v-28.328125z" stroke-linejoin="round"/><path id="i" d="m3.078125 15.484375 8.6875 1.359375q.734375-5.21875 4.078125-8 3.34375-2.78125 9.359375-2.78125 6.046875 0 8.96875 2.453125 2.9375 2.46875 2.9375 5.796875 0 2.96875-2.59375 4.6875-1.796875 1.171875-8.984375 2.96875-9.65625 2.453125-13.390625 4.234375-3.734375 1.78125-5.671875 4.921875-1.921875 3.15625-1.921875 6.96875 0 3.453125 1.578125 6.40625 1.59375 2.96875 4.328125 4.921875 2.046875 1.5 5.578125 2.546875 3.546875 1.0625 7.609375 1.0625 6.09375 0 10.703125-1.765625 4.625-1.75 6.8125-4.765625 2.203125-3 3.03125-8.015625l-8.59375-1.171875q-.578125 4-3.390625 6.234375-2.8125 2.25-7.9375 2.25-6.046875 0-8.640625-2-2.59375-2-2.59375-4.6875 0-1.703125 1.078125-3.078125 1.078125-1.40625 3.375-2.34375 1.3125-.484375 7.765625-2.234375 9.328125-2.5 13-4.09375 3.6875-1.578125 5.78125-4.609375 2.109375-3.015625 2.109375-7.515625 0-4.390625-2.5625-8.28125-2.5625-3.875-7.40625-6-4.828125-2.125-10.921875-2.125-10.109375 0-15.40625 4.203125-5.296875 4.203125-6.765625 12.453125z" stroke-linejoin="round"/><path id="j" d="m6.640625 61.46875v10.109375h8.796875v-10.109375zm0-61.46875v51.859375h8.796875v-51.859375z" stroke-linejoin="round"/><path id="k" d="m25.78125 7.859375 1.265625-7.765625q-3.703125-.78125-6.640625-.78125-4.78125 0-7.421875 1.515625-2.625 1.515625-3.703125 3.984375-1.078125 2.46875-1.078125 10.375v29.828125h-6.4375v6.84375h6.4375v12.84375l8.734375 5.265625v-18.109375h8.84375v-6.84375h-8.84375v-30.3125q0-3.765625.46875-4.84375.46875-1.0625 1.515625-1.703125 1.046875-.640625 3-.640625 1.46875 0 3.859375.34375z" stroke-linejoin="round"/><path id="l" d="m3.328125 25.921875q0 14.40625 8 21.34375 6.6875 5.765625 16.3125 5.765625 10.6875 0 17.46875-7.015625 6.796875-7 6.796875-19.359375 0-10-3-15.75-3-5.734375-8.75-8.90625-5.734375-3.171875-12.515625-3.171875-10.890625 0-17.609375 6.984375-6.703125 6.984375-6.703125 20.109375zm9.03125 0q0-9.953125 4.34375-14.90625 4.34375-4.953125 10.9375-4.953125 6.546875 0 10.890625 4.96875 4.34375 4.984375 4.34375 15.1875 0 9.625-4.375 14.578125-4.375 4.953125-10.859375 4.953125-6.59375 0-10.9375-4.9375-4.34375-4.921875-4.34375-14.890625z" stroke-linejoin="round"/><path id="m" d="m8.6875 0v45.015625h-7.765625v6.84375h7.765625v5.515625q0 5.21875.9375 7.765625 1.265625 3.421875 4.453125 5.53125 3.203125 2.125 8.96875 2.125 3.71875 0 8.203125-.875l-1.3125-7.65625q-2.734375.484375-5.1875.484375-4 0-5.65625-1.71875-1.65625-1.703125-1.65625-6.390625v-4.78125h10.109375v-6.84375h-10.109375v-45.015625z" stroke-linejoin="round"/><path id="n" d="m6.5 0v51.859375h7.90625v-7.859375q3.03125 5.515625 5.59375 7.265625 2.5625 1.765625 5.640625 1.765625 4.4375 0 9.03125-2.828125l-3.03125-8.15625q-3.21875 1.90625-6.4375 1.90625-2.890625 0-5.1875-1.734375-2.296875-1.734375-3.265625-4.8125-1.46875-4.6875-1.46875-10.25v-27.15625z" stroke-linejoin="round"/><path id="o" d="m6.59375 0v71.578125h8.78125v-25.671875q6.15625 7.125 15.53125 7.125 5.765625 0 10.015625-2.28125 4.25-2.265625 6.078125-6.265625 1.828125-4 1.828125-11.625v-32.859375h-8.78125v32.859375q0 6.59375-2.859375 9.59375-2.859375 3-8.078125 3-3.90625 0-7.359375-2.03125-3.4375-2.015625-4.90625-5.484375-1.46875-3.46875-1.46875-9.5625v-28.375z" stroke-linejoin="round"/><path id="p" d="m40.4375 19 8.640625-1.125q-1.421875-8.9375-7.265625-14-5.828125-5.046875-14.328125-5.046875-10.640625 0-17.109375 6.953125-6.46875 6.96875-6.46875 19.953125 0 8.390625 2.78125 14.6875 2.78125 6.3125 8.46875 9.453125 5.6875 3.15625 12.390625 3.15625 8.4375 0 13.8125-4.28125 5.375-4.265625 6.890625-12.125l-8.546875-1.328125q-1.21875 5.234375-4.328125 7.859375-3.09375 2.640625-7.5 2.640625-6.640625 0-10.796875-4.765625-4.140625-4.75-4.140625-15.046875 0-10.453125 4-15.1875 4.015625-4.734375 10.453125-4.734375 5.171875 0 8.640625 3.171875 3.46875 3.171875 4.40625 9.765625z" stroke-linejoin="round"/></defs><g stroke-linejoin="round" transform="translate(-88.977969 -71.664375)"><path d="m0 720h1080v-720h-1080z" fill="none"/><g stroke-linejoin="round"><path d="m135 630h837v-543.6h-837z" fill="none"/><g><path clip-path="url(#a)" d="m197.85771 630v-543.6" fill="none" stroke="#ccc" stroke-linecap="round"/><g fill="#262626" transform="matrix(.11 0 0 -.11 188.52833 647.37359)"><path d="m52.828125 31.203125h-47.265625v8.203125h47.265625z"/><use height="100%" width="100%" x="58.398438" xlink:href="#b"/><use height="100%" width="100%" x="114.01367" xlink:href="#c"/></g><path clip-path="url(#a)" d="m363.27273 630v-543.6" fill="none" stroke="#ccc" stroke-linecap="round"/><use fill="#262626" height="100%" transform="matrix(.11 0 0 -.11 360.21421 647.37359)" width="100%" xlink:href="#c"/><path clip-path="url(#a)" d="m528.68775 630v-543.6" fill="none" stroke="#ccc" stroke-linecap="round"/><g fill="#262626" transform="matrix(.11 0 0 -.11 522.57072 647.37359)"><use height="100%" width="100%" xlink:href="#b"/><use height="100%" width="100%" x="55.615234" xlink:href="#c"/></g><path clip-path="url(#a)" d="m694.10277 630v-543.6" fill="none" stroke="#ccc" stroke-linecap="round"/><g fill="#262626" transform="matrix(.11 0 0 -.11 687.98574 647.37359)"><use height="100%" width="100%" xlink:href="#d"/><use height="100%" width="100%" x="55.615234" xlink:href="#c"/></g><path clip-path="url(#a)" d="m859.51779 630v-543.6" fill="none" stroke="#ccc" stroke-linecap="round"/><g fill="#262626" transform="matrix(.11 0 0 -.11 853.40075 647.37359)"><path d="m4.203125 18.890625 8.78125 1.171875q1.515625-7.46875 5.15625-10.765625 3.640625-3.296875 8.859375-3.296875 6.203125 0 10.46875 4.296875 4.28125 4.296875 4.28125 10.65625 0 6.046875-3.953125 9.96875-3.953125 3.9375-10.0625 3.9375-2.484375 0-6.203125-.96875l.984375 7.71875q.875-.109375 1.40625-.109375 5.625 0 10.109375 2.921875 4.5 2.9375 4.5 9.046875 0 4.828125-3.28125 8-3.265625 3.1875-8.4375 3.1875-5.125 0-8.546875-3.234375-3.421875-3.21875-4.390625-9.65625l-8.796875 1.5625q1.609375 8.828125 7.3125 13.6875 5.71875 4.859375 14.21875 4.859375 5.859375 0 10.78125-2.515625 4.9375-2.515625 7.546875-6.859375 2.625-4.34375 2.625-9.234375 0-4.625-2.5-8.4375-2.484375-3.8125-7.359375-6.0625 6.34375-1.453125 9.859375-6.078125 3.515625-4.609375 3.515625-11.546875 0-9.375-6.84375-15.890625-6.828125-6.515625-17.28125-6.515625-9.421875 0-15.65625 5.609375-6.21875 5.625-7.09375 14.546875z"/><use height="100%" width="100%" x="55.615234" xlink:href="#c"/></g></g><g><path clip-path="url(#a)" d="m135 605.29091h837" fill="none" stroke="#ccc" stroke-linecap="round"/><g fill="#262626" transform="matrix(.11 0 0 -.11 104.09297 609.22771)"><use height="100%" width="100%" xlink:href="#c"/><use height="100%" width="100%" x="55.615234" xlink:href="#e"/><use height="100%" width="100%" x="83.398438" xlink:href="#c"/><use height="100%" width="100%" x="139.01367" xlink:href="#c"/></g><path clip-path="url(#a)" d="m135 497.41133h837" fill="none" stroke="#ccc" stroke-linecap="round"/><g fill="#262626" transform="matrix(.11 0 0 -.11 104.09297 501.34812)"><use height="100%" width="100%" xlink:href="#c"/><use height="100%" width="100%" x="55.615234" xlink:href="#e"/><use height="100%" width="100%" x="83.398438" xlink:href="#c"/><use height="100%" width="100%" x="139.01367" xlink:href="#d"/></g><path clip-path="url(#a)" d="m135 389.53174h837" fill="none" stroke="#ccc" stroke-linecap="round"/><g fill="#262626" transform="matrix(.11 0 0 -.11 104.09297 393.46854)"><use height="100%" width="100%" xlink:href="#c"/><use height="100%" width="100%" x="55.615234" xlink:href="#e"/><use height="100%" width="100%" x="83.398438" xlink:href="#c"/><path d="m32.328125 0v17.140625h-31.0625v8.0625l32.671875 46.375h7.171875v-46.375h9.671875v-8.0625h-9.671875v-17.140625zm0 25.203125v32.265625l-22.421875-32.265625z" transform="translate(139.01367)"/></g><path clip-path="url(#a)" d="m135 281.65216h837" fill="none" stroke="#ccc" stroke-linecap="round"/><g fill="#262626" transform="matrix(.11 0 0 -.11 104.09297 285.58896)"><use height="100%" width="100%" xlink:href="#c"/><use height="100%" width="100%" x="55.615234" xlink:href="#e"/><use height="100%" width="100%" x="83.398438" xlink:href="#c"/><path d="m49.75 54.046875-8.734375-.671875q-1.171875 5.171875-3.3125 7.515625-3.578125 3.765625-8.796875 3.765625-4.203125 0-7.375-2.34375-4.140625-3.03125-6.546875-8.84375-2.390625-5.8125-2.484375-16.546875 3.171875 4.828125 7.765625 7.171875 4.59375 2.34375 9.625 2.34375 8.78125 0 14.953125-6.46875 6.1875-6.46875 6.1875-16.71875 0-6.75-2.90625-12.53125-2.90625-5.78125-7.984375-8.859375-5.078125-3.078125-11.53125-3.078125-10.984375 0-17.921875 8.078125-6.921875 8.078125-6.921875 26.640625 0 20.75 7.65625 30.171875 6.6875 8.203125 18.015625 8.203125 8.453125 0 13.84375-4.734375 5.40625-4.734375 6.46875-13.09375zm-35.875-30.859375q0-4.53125 1.921875-8.6875 1.921875-4.140625 5.390625-6.328125 3.46875-2.171875 7.28125-2.171875 5.5625 0 9.5625 4.484375 4.015625 4.5 4.015625 12.21875 0 7.421875-3.96875 11.6875-3.953125 4.28125-9.953125 4.28125-5.953125 0-10.109375-4.28125-4.140625-4.265625-4.140625-11.203125z" transform="translate(139.01367)"/></g><path clip-path="url(#a)" d="m135 173.77258h837" fill="none" stroke="#ccc" stroke-linecap="round"/><g fill="#262626"><g transform="matrix(.11 0 0 -.11 104.09297 177.70938)"><use height="100%" width="100%" xlink:href="#c"/><use height="100%" width="100%" x="55.615234" xlink:href="#e"/><use height="100%" width="100%" x="83.398438" xlink:href="#c"/><path d="m17.671875 38.8125q-5.46875 2.015625-8.109375 5.71875-2.625 3.71875-2.625 8.890625 0 7.8125 5.609375 13.125 5.625 5.328125 14.9375 5.328125 9.375 0 15.09375-5.453125 5.71875-5.4375 5.71875-13.25 0-4.984375-2.625-8.671875-2.609375-3.671875-7.921875-5.6875 6.59375-2.140625 10.03125-6.9375 3.4375-4.78125 3.4375-11.421875 0-9.171875-6.5-15.421875-6.484375-6.25-17.078125-6.25-10.59375 0-17.09375 6.265625-6.5 6.28125-6.5 15.65625 0 6.984375 3.546875 11.6875 3.546875 4.71875 10.078125 6.421875zm-1.75 14.90625q0-5.078125 3.265625-8.3125 3.28125-3.21875 8.5-3.21875 5.078125 0 8.328125 3.1875 3.25 3.203125 3.25 7.84375 0 4.84375-3.359375 8.140625-3.34375 3.296875-8.3125 3.296875-5.03125 0-8.359375-3.234375-3.3125-3.21875-3.3125-7.703125zm-2.828125-33.0625q0-3.765625 1.78125-7.28125 1.78125-3.515625 5.296875-5.453125 3.515625-1.921875 7.5625-1.921875 6.296875 0 10.390625 4.046875 4.109375 4.0625 4.109375 10.3125 0 6.34375-4.21875 10.5-4.21875 4.15625-10.578125 4.15625-6.203125 0-10.28125-4.109375-4.0625-4.09375-4.0625-10.25z" transform="translate(139.01367)"/></g><g transform="matrix(0 -.12 -.12 0 97.567344 378.20625)"><use height="100%" width="100%" xlink:href="#f"/><use height="100%" width="100%" x="72.216797" xlink:href="#g"/><use height="100%" width="100%" x="127.83203" xlink:href="#h"/><use height="100%" width="100%" x="183.44727" xlink:href="#i"/><use height="100%" width="100%" x="233.44727" xlink:href="#j"/><use height="100%" width="100%" x="255.66406" xlink:href="#k"/><path d="m6.203125-19.96875-.984375 8.25q2.890625-.78125 5.03125-.78125 2.9375 0 4.6875.984375 1.765625.96875 2.890625 2.71875.828125 1.328125 2.6875 6.546875.234375.734375.78125 2.15625l-19.6875 51.953125h9.46875l10.796875-30.03125q2.09375-5.71875 3.765625-12.015625 1.515625 6.0625 3.609375 11.8125l11.078125 30.234375h8.796875l-19.734375-52.734375q-3.171875-8.546875-4.921875-11.765625-2.34375-4.359375-5.375-6.375-3.03125-2.03125-7.234375-2.03125-2.53125 0-5.65625 1.078125z" transform="translate(283.44727)"/></g></g></g></g><g fill="none"><path clip-path="url(#a)" d="m173.04545 605.29091 166.04423-.081 2.28501-.20178 1.52334-.3247 1.52335-.62757.76167-.48995.76167-.65134.76167-.8525.76167-1.09832.76167-1.39261.76167-1.7374.76167-2.13221.76167-2.57331.76167-3.05308 1.52334-7.63541 1.52335-9.63301 1.52334-11.23296 3.04668-23.55745 1.52334-9.76141.76167-3.81444.76167-2.94431.76167-2.00278.76167-1.03662.76168-.096.76167.76908.76167 1.51274.76167 2.09663 3.80835 12.46231.76167 1.6375.76167 1.07509.76167.48476.76167-.0827.76168-.57993.76167-.96688 3.04668-4.75243.76167-.65174.76167-.20066.76167.30715.76167.8274.76167 1.3154.76167 1.72995 1.52335 4.24714 1.52334 4.3571.76167 1.8635.76167 1.49469.76167 1.04398.76167.54927.76167.0517.76167-.40778.76167-.79206 1.52334-2.2918 1.52334-2.34289.76168-.85799.76167-.50328.76167-.075.76167.39115.76167.85672.76167 1.28409 1.52334 3.53423 2.28501 6.00086.76167 1.69759.76167 1.37594.76168.98978.76167.57178.76167.1566.76167-.22211.76167-.53447 1.52334-1.62937 1.52334-1.64562.76167-.56485.76167-.28208.76167.0527.76167.4095.76168.75686.76167 1.06469 1.52334 2.76903 2.28501 4.31671.76167 1.09294.76167.79299.76167.45083.76167.0945.76167-.24724.76167-.54729 1.52335-1.71815 1.52334-1.96118.76167-.84466.76167-.65211.76167-.40746.76167-.13627.76167.13336.76167.37319 1.52334 1.22147 1.52335 1.2741.76167.41338.76167.1445.76167-.19362.76167-.57641.76167-.97486.76167-1.35792 1.52334-3.65452 3.04668-8.45387.76168-1.74672.76167-1.44101.76167-1.10486.76167-.77573.76167-.49267 3.04668-1.23689.76167-.83141.76167-1.33114.76167-1.94439.76167-2.63351.76168-3.35193.76167-4.04771 1.52334-9.83067 3.80835-26.78096.76167-4.25147.76167-3.60186.76167-2.95465.76167-2.38903 3.04669-8.10679.76167-3.1674.76167-4.27969.76167-5.6691.76167-7.26033.76167-8.95332 1.52334-22.79129 1.52334-27.709 2.28502-42.92066 1.52334-23.0562.76167-8.40055.76167-5.91743.76167-3.33401.76167-.82812.76167 1.42237.76167 3.25406 1.52334 9.69251.76167 5.09473.76168 4.34204.76167 2.96551.76167 1.0789.76167-1.16118.76167-3.56702.76167-5.93441.76167-8.05865 1.52334-20.60587 1.52334-22.15558.76167-9.78193.76167-7.96705.76168-5.57055.76167-2.7551.76167.28332.76167 3.33131.76167 6.17527.76167 8.61859 1.52334 22.19092 2.28501 34.82499.76167 9.24867.76167 7.21382.76168 4.91615.76167 2.55069.76167.31163.76167-1.62335.76167-3.10716 3.04668-15.61944.76167-1.85071.76167-.18149.76167 1.66239.76167 3.50867.76168 5.18776 1.52334 14.01006 2.28501 22.4805.76167 5.72666.76167 4.10787.76167 2.22611.76167.2354.76167-1.70191.76167-3.42879.76167-4.80678 3.04669-23.09255.76167-4.13271.76167-2.63224.76167-.91486.76167.86348.76167 2.5413.76167 3.96519 1.52334 10.55766 1.52335 10.57371.76167 3.93961.76167 2.42517.76167.58695.76167-1.42771.76167-3.45472.76167-5.32676.76167-6.88735 3.80835-39.87133.76167-5.15297.76168-3.20056.76167-1.08315.76167 1.02227.76167 2.9377.76167 4.49915 3.04668 22.65529.76167 3.77001.76167 1.9479.76167-.19584.76167-2.48648.76168-4.73479.76167-6.75261 1.52334-17.8108 2.28501-28.20602.76167-7.17202.76167-5.15227.76167-2.80303.76167-.31267.76167 2.11704.76167 4.28775.76168 6.02101 3.04668 28.68901.76167 4.89497.76167 2.83199.76167.44269.76167-2.07563.76167-4.5141.76167-6.66963 1.52334-17.80914 1.52335-19.32159.76167-8.43331.76167-6.75865.76167-4.6026.76167-2.14615.76167.40304.76167 2.82774.76167 4.91949 1.52334 13.91353 1.52334 14.60629.76168 5.69482.76167 3.75325.76167 1.33876.76167-1.35381.76167-4.10453.76167-6.68663.76167-8.8854 1.52334-21.95701 1.52334-22.49395.76167-9.50454.76167-7.46391.76168-4.96655.76167-2.22696.76167.51654.76167 3.02174.76167 5.06292 3.04668 25.92682.76167 3.72985.76167 1.16159.76167-1.85536.76167-5.07927.76168-8.24556.76167-11.08839 1.52334-28.22774 2.28501-44.16229.76167-11.38461.76167-8.3727.76167-4.85084.76167-1.08625.76167 2.6314.76167 6.01374.76168 8.79749 1.52334 22.53606 1.52334 22.40421.76167 8.67375.76167 5.91481.76167 2.62634.76167-.9156.76167-4.41441.76167-7.57716.76167-10.13868 3.04669-48.09576.76167-8.95538.76167-6.03376.76167-2.6136.76167 1.0249.76167 4.58349.76167 7.7706.76167 10.32572 3.04668 48.47974.76168 8.98266.76167 6.07894.76167 2.71177.76167-.83663.76167-4.26913.76167-7.29812.76167-9.66896 3.04668-43.72896.76167-7.24628.76167-4.12827.76168-.54922.76167 3.21294.76167 6.86792.76167 10.13707 1.52334 27.37 2.28501 45.12054.76167 12.38986.76167 9.82196.76167 6.81646.76167 3.63026.76168.52944.76167-2.23244.76167-4.43457 1.52334-12.44516.76167-6.29575.76167-5.21045.76167-3.38505.76167-.97932.76167 1.80341.76167 4.73388.76167 7.57628.76167 10.10768 1.52335 25.65035 2.28501 41.33869.76167 11.65756.76167 9.65322.76167 7.32472.76167 4.86852.76167 2.48465.76167.36037.76167-1.34461.76167-2.5103 1.52335-6.05391.76167-2.31609.76167-1.12741.76167.45561.76167 2.28278.76167 4.18847.76167 6.00567.76167 7.57994 1.52334 18.29812 1.52334 19.14777 1.52335 15.99557.76167 5.85113.76167 4.13663.76167 2.38297.76167.73012.76167-.69444.76167-1.78591 3.04668-9.57423.76167-.94231.76168.24454.76167 1.55389.76167 2.86232.76167 4.04909 1.52334 10.6542 2.28501 16.96965.76167 4.40329.76167 3.26485.76167 1.94657.76167.55712.76167-.78957.76168-1.98395.76167-2.92981 3.04668-14.18352.76167-2.32611.76167-1.23958.76167.007.76167 1.30744.76167 2.55359.76167 3.6419 1.52335 9.49298 1.52334 10.16543.76167 4.44173.76167 3.59952.76167 2.53055.76167 1.32531.76167.0848.76167-1.08794.76167-2.09614.76167-2.8573 2.28502-9.90005.76167-2.59704.76167-1.7378.76167-.6654.76167.53353.76167 1.76319.76167 2.92674.76167 3.93419 1.52334 9.90735 2.28501 15.33243.76168 4.04015.76167 3.13487.76167 2.11843.76167 1.07847.76167.1033.76167-.72513.76167-1.3375 2.28501-4.87875.76167-.91737.76167-.11081.76167.8985.76168 2.04543.76167 3.25789.76167 4.46272.76167 5.591 1.52334 13.97418 2.28501 24.80227 2.28501 24.12525 1.52335 13.48547 1.52334 10.68312.76167 4.27074.76167 3.5993.76167 2.98213.76167 2.42984.76167 1.94756.76167 1.53596.76167 1.19217.76167.91085.76167.68514.76167.50745 1.52335.63604 1.52334.31931 2.28501.19164 4.57002.0688 54.8403.004h105.87223" stroke="#4c72b0" stroke-linecap="round" stroke-linejoin="round" stroke-width="1.5"/><g stroke="#ccc" stroke-linecap="square" stroke-linejoin="miter" stroke-width="1.25"><path d="m135 630v-543.6"/><path d="m972 630v-543.6"/><path d="m135 630h837"/><path d="m135 86.4h837"/></g></g><g fill="#262626" stroke-linejoin="round" transform="matrix(.12 0 0 -.12 450.78281 80.4)"><path d="m7.328125 0v71.578125h9.46875v-35.5l35.546875 35.5h12.84375l-30.03125-29 31.34375-42.578125h-12.5l-25.484375 36.234375-11.71875-11.421875v-24.8125z"/><use height="100%" width="100%" x="66.699219" xlink:href="#f"/><path d="m7.90625 0v71.578125h51.765625v-8.4375h-42.28125v-21.921875h39.59375v-8.40625h-39.59375v-24.359375h43.9375v-8.453125z" transform="translate(138.91602)"/><path d="m6.59375-19.875v71.734375h8v-6.734375q2.84375 3.953125 6.40625 5.921875 3.5625 1.984375 8.640625 1.984375 6.640625 0 11.71875-3.421875 5.078125-3.421875 7.65625-9.65625 2.59375-6.21875 2.59375-13.640625 0-7.953125-2.859375-14.328125-2.84375-6.375-8.296875-9.765625-5.4375-3.390625-11.453125-3.390625-4.390625 0-7.890625 1.859375-3.484375 1.859375-5.734375 4.6875v-25.25zm7.953125 45.515625q0-10.015625 4.046875-14.796875 4.0625-4.78125 9.828125-4.78125 5.859375 0 10.03125 4.953125 4.171875 4.953125 4.171875 15.359375 0 9.90625-4.078125 14.828125-4.078125 4.9375-9.734375 4.9375-5.625 0-9.953125-5.25-4.3125-5.25-4.3125-15.25z" transform="translate(233.39844)"/><path d="m6.390625 0v71.578125h8.796875v-71.578125z" transform="translate(289.01367)"/><use height="100%" width="100%" x="311.23047" xlink:href="#l"/><use height="100%" width="100%" x="366.8457" xlink:href="#k"/><use height="100%" width="100%" x="422.41211" xlink:href="#m"/><use height="100%" width="100%" x="450.19531" xlink:href="#l"/><use height="100%" width="100%" x="505.81055" xlink:href="#n"/><use height="100%" width="100%" x="566.89453" xlink:href="#k"/><use height="100%" width="100%" x="594.67773" xlink:href="#o"/><use height="100%" width="100%" x="650.29297" xlink:href="#g"/><use height="100%" width="100%" x="733.69141" xlink:href="#o"/><use height="100%" width="100%" x="789.30664" xlink:href="#l"/><path d="m40.578125 0v7.625q-6.0625-8.796875-16.453125-8.796875-4.59375 0-8.578125 1.75-3.96875 1.765625-5.90625 4.421875-1.921875 2.671875-2.703125 6.53125-.546875 2.578125-.546875 8.203125v32.125h8.796875v-28.765625q0-6.875.53125-9.28125.828125-3.453125 3.515625-5.4375 2.6875-1.984375 6.640625-1.984375 3.953125 0 7.421875 2.03125 3.46875 2.03125 4.90625 5.515625 1.453125 3.5 1.453125 10.140625v27.78125h8.78125v-51.859375z" transform="translate(844.92187)"/><use height="100%" width="100%" x="900.53711" xlink:href="#n"/><use height="100%" width="100%" x="933.83789" xlink:href="#i"/><use height="100%" width="100%" x="1011.6211" xlink:href="#l"/><use height="100%" width="100%" x="1067.2363" xlink:href="#m"/><use height="100%" width="100%" x="1122.8027" xlink:href="#k"/><use height="100%" width="100%" x="1150.5859" xlink:href="#o"/><use height="100%" width="100%" x="1206.2012" xlink:href="#g"/><path d="m40.4375 6.390625q-4.890625-4.140625-9.40625-5.859375-4.515625-1.703125-9.6875-1.703125-8.546875 0-13.140625 4.171875-4.59375 4.171875-4.59375 10.671875 0 3.8125 1.734375 6.953125 1.734375 3.15625 4.546875 5.0625 2.8125 1.90625 6.328125 2.875 2.578125.6875 7.8125 1.328125 10.640625 1.265625 15.671875 3.015625.04687 1.8125.04687 2.296875 0 5.375-2.5 7.578125-3.359375 2.96875-10 2.96875-6.203125 0-9.15625-2.171875-2.953125-2.171875-4.375-7.6875l-8.593745 1.171875q1.171875 5.515625 3.859375 8.90625 2.6875 3.390625 7.765625 5.21875 5.078125 1.84375 11.765625 1.84375 6.640625 0 10.78125-1.5625 4.15625-1.5625 6.109375-3.9375 1.953125-2.359375 2.734375-5.984375.4375-2.234375.4375-8.09375v-11.71875q0-12.265625.5625-15.515625.5625-3.234375 2.234375-6.21875h-9.1875q-1.359375 2.734375-1.75 6.390625zm-.734375 19.640625q-4.796875-1.953125-14.359375-3.328125-5.421875-.78125-7.671875-1.765625-2.234375-.96875-3.46875-2.84375-1.21875-1.875-1.21875-4.171875 0-3.515625 2.65625-5.859375 2.671875-2.34375 7.796875-2.34375 5.078125 0 9.03125 2.21875 3.953125 2.21875 5.8125 6.078125 1.421875 2.984375 1.421875 8.78125z" transform="translate(1289.5996)"/><use height="100%" width="100%" x="1345.2148" xlink:href="#p"/><use height="100%" width="100%" x="1395.2148" xlink:href="#p"/><use height="100%" width="100%" x="1445.2148" xlink:href="#j"/><path d="m40.234375 0v6.546875q-4.9375-7.71875-14.5-7.71875-6.203125 0-11.40625 3.421875-5.203125 3.421875-8.0625 9.546875-2.84375 6.125-2.84375 14.078125 0 7.765625 2.578125 14.09375 2.59375 6.328125 7.765625 9.6875 5.1875 3.375 11.578125 3.375 4.6875 0 8.34375-1.984375 3.671875-1.96875 5.96875-5.140625v25.671875h8.734375v-71.578125zm-27.78125 25.875q0-9.953125 4.1875-14.890625 4.203125-4.921875 9.921875-4.921875 5.765625 0 9.78125 4.703125 4.03125 4.71875 4.03125 14.375 0 10.65625-4.109375 15.625-4.09375 4.984375-10.09375 4.984375-5.859375 0-9.796875-4.78125-3.921875-4.78125-3.921875-15.09375z" transform="translate(1467.4316)"/><use height="100%" width="100%" x="1523.0469" xlink:href="#g"/><use height="100%" width="100%" x="1578.6621" xlink:href="#h"/><use height="100%" width="100%" x="1634.2773" xlink:href="#k"/><use height="100%" width="100%" x="1662.0605" xlink:href="#i"/></g></g></svg>