<svg height="720pt" stroke-linejoin="round" viewBox="0 0 1080 720" width="1080pt" xmlns="http://www.w3.org/2000/svg" xmlns:xlink="http://www.w3.org/1999/xlink"><defs stroke-linejoin="round"><clipPath id="a" stroke-linejoin="round"><path d="m135 86.4h837v543.6h-837z"/></clipPath><path id="b" d="m4.15625 35.296875q0 12.703125 2.609375 20.4375 2.609375 7.75 7.75 11.9375 5.15625 4.203125 12.96875 4.203125 5.765625 0 10.109375-2.328125 4.34375-2.3125 7.171875-6.6875 2.84375-4.359375 4.453125-10.640625 1.609375-6.265625 1.609375-16.921875 0-12.59375-2.59375-20.328125-2.578125-7.734375-7.734375-11.96875-5.140625-4.21875-13.015625-4.21875-10.34375 0-16.25 7.421875-7.078125 8.9375-7.078125 29.09375zm9.03125 0q0-17.625 4.125-23.46875 4.125-5.828125 10.171875-5.828125 6.0625 0 10.1875 5.859375 4.125 5.859375 4.125 23.4375 0 17.6875-4.125 23.484375-4.125 5.8125-10.28125 5.8125-6.046875 0-9.671875-5.125-4.53125-6.53125-4.53125-24.171875z" stroke-linejoin="round"/><path id="c" d="m37.25 0h-8.78125v56q-3.171875-3.015625-8.328125-6.046875-5.15625-3.03125-9.25-4.546875v8.5q7.375 3.46875 12.890625 8.390625 5.515625 4.9375 7.8125 9.578125h5.65625z" stroke-linejoin="round"/><path id="d" d="m50.34375 8.453125v-8.453125h-47.3125q-.09375 3.171875 1.015625 6.109375 1.8125 4.828125 5.78125 9.515625 3.984375 4.6875 11.515625 10.84375 11.671875 9.5625 15.765625 15.15625 4.109375 5.59375 4.109375 10.578125 0 5.21875-3.75 8.796875-3.734375 3.59375-9.734375 3.59375-6.34375 0-10.15625-3.8125-3.8125-3.796875-3.859375-10.53125l-9.03125.921875q.921875 10.109375 6.96875 15.40625 6.0625 5.296875 16.28125 5.296875 10.296875 0 16.296875-5.71875 6.015625-5.703125 6.015625-14.15625 0-4.296875-1.765625-8.453125-1.75-4.140625-5.828125-8.734375-4.078125-4.59375-13.546875-12.59375-7.921875-6.640625-10.171875-9.015625-2.234375-2.359375-3.703125-4.75z" stroke-linejoin="round"/><path id="e" d="m4.203125 18.890625 8.78125 1.171875q1.515625-7.46875 5.15625-10.765625 3.640625-3.296875 8.859375-3.296875 6.203125 0 10.46875 4.296875 4.28125 4.296875 4.28125 10.65625 0 6.046875-3.953125 9.96875-3.953125 3.9375-10.0625 3.9375-2.484375 0-6.203125-.96875l.984375 7.71875q.875-.109375 1.40625-.109375 5.625 0 10.109375 2.921875 4.5 2.9375 4.5 9.046875 0 4.828125-3.28125 8-3.265625 3.1875-8.4375 3.1875-5.125 0-8.546875-3.234375-3.421875-3.21875-4.390625-9.65625l-8.796875 1.5625q1.609375 8.828125 7.3125 13.6875 5.71875 4.859375 14.21875 4.859375 5.859375 0 10.78125-2.515625 4.9375-2.515625 7.546875-6.859375 2.625-4.34375 2.625-9.234375 0-4.625-2.5-8.4375-2.484375-3.8125-7.359375-6.0625 6.34375-1.453125 9.859375-6.078125 3.515625-4.609375 3.515625-11.546875 0-9.375-6.84375-15.890625-6.828125-6.515625-17.28125-6.515625-9.421875 0-15.65625 5.609375-6.21875 5.625-7.09375 14.546875z" stroke-linejoin="round"/><path id="f" d="m32.328125 0v17.140625h-31.0625v8.0625l32.671875 46.375h7.171875v-46.375h9.671875v-8.0625h-9.671875v-17.140625zm0 25.203125v32.265625l-22.421875-32.265625z" stroke-linejoin="round"/><path id="g" d="m4.15625 18.75 9.21875.78125q1.03125-6.734375 4.765625-10.140625 3.734375-3.390625 9.015625-3.390625 6.34375 0 10.734375 4.78125 4.390625 4.796875 4.390625 12.703125 0 7.515625-4.21875 11.859375-4.21875 4.359375-11.0625 4.359375-4.25 0-7.671875-1.9375-3.40625-1.921875-5.359375-5l-8.25 1.078125 6.921875 36.765625h35.609375v-8.40625h-28.578125l-3.84375-19.234375q6.4375 4.5 13.515625 4.5 9.375 0 15.8125-6.5 6.453125-6.5 6.453125-16.703125 0-9.71875-5.65625-16.796875-6.890625-8.6875-18.796875-8.6875-9.765625 0-15.953125 5.46875-6.171875 5.46875-7.046875 14.5z" stroke-linejoin="round"/><path id="h" d="m49.75 54.046875-8.734375-.671875q-1.171875 5.171875-3.3125 7.515625-3.578125 3.765625-8.796875 3.765625-4.203125 0-7.375-2.34375-4.140625-3.03125-6.546875-8.84375-2.390625-5.8125-2.484375-16.546875 3.171875 4.828125 7.765625 7.171875 4.59375 2.34375 9.625 2.34375 8.78125 0 14.953125-6.46875 6.1875-6.46875 6.1875-16.71875 0-6.75-2.90625-12.53125-2.90625-5.78125-7.984375-8.859375-5.078125-3.078125-11.53125-3.078125-10.984375 0-17.921875 8.078125-6.921875 8.078125-6.921875 26.640625 0 20.75 7.65625 30.171875 6.6875 8.203125 18.015625 8.203125 8.453125 0 13.84375-4.734375 5.40625-4.734375 6.46875-13.09375zm-35.875-30.859375q0-4.53125 1.921875-8.6875 1.921875-4.140625 5.390625-6.328125 3.46875-2.171875 7.28125-2.171875 5.5625 0 9.5625 4.484375 4.015625 4.5 4.015625 12.21875 0 7.421875-3.96875 11.6875-3.953125 4.28125-9.953125 4.28125-5.953125 0-10.109375-4.28125-4.140625-4.265625-4.140625-11.203125z" stroke-linejoin="round"/><path id="i" d="m5.46875 16.546875 8.453125.78125q1.0625-5.953125 4.09375-8.640625 3.03125-2.6875 7.765625-2.6875 4.046875 0 7.09375 1.859375 3.0625 1.859375 5.015625 4.953125 1.953125 3.109375 3.265625 8.375 1.328125 5.28125 1.328125 10.75 0 .578125-.046875 1.75-2.640625-4.1875-7.203125-6.8125-4.5625-2.609375-9.890625-2.609375-8.890625 0-15.046875 6.4375-6.140625 6.453125-6.140625 17 0 10.890625 6.421875 17.53125 6.421875 6.640625 16.078125 6.640625 6.984375 0 12.765625-3.765625 5.796875-3.75 8.796875-10.71875 3-6.953125 3-20.140625 0-13.71875-2.984375-21.84375-2.96875-8.125-8.859375-12.375-5.875-4.25-13.78125-4.25-8.40625 0-13.734375 4.65625-5.3125 4.671875-6.390625 13.109375zm35.984375 31.59375q0 7.578125-4.03125 12.015625-4.015625 4.4375-9.6875 4.4375-5.859375 0-10.203125-4.78125-4.34375-4.78125-4.34375-12.40625 0-6.828125 4.125-11.109375 4.125-4.265625 10.171875-4.265625 6.109375 0 10.03125 4.265625 3.9375 4.28125 3.9375 11.84375z" stroke-linejoin="round"/><path id="j" d="m7.71875 0v71.578125h27q7.125 0 10.890625-.671875 5.265625-.890625 8.828125-3.359375 3.578125-2.453125 5.75-6.90625 2.171875-4.4375 2.171875-9.765625 0-9.125-5.8125-15.453125-5.8125-6.3125-21-6.3125h-18.359375v-29.109375zm9.46875 37.546875h18.5q9.1875 0 13.046875 3.421875 3.859375 3.421875 3.859375 9.625 0 4.484375-2.28125 7.671875-2.265625 3.203125-5.96875 4.234375-2.40625.640625-8.84375.640625h-18.3125z" stroke-linejoin="round"/><path id="k" d="m4.5 23 8.921875.78125q.640625-5.375 2.953125-8.8125 2.328125-3.4375 7.203125-5.5625 4.890625-2.125 11-2.125 5.40625 0 9.5625 1.609375 4.15625 1.609375 6.171875 4.40625 2.03125 2.8125 2.03125 6.140625 0 3.359375-1.953125 5.875-1.953125 2.515625-6.4375 4.234375-2.890625 1.125-12.75 3.484375-9.859375 2.375-13.8125 4.46875-5.140625 2.6875-7.65625 6.65625-2.5 3.984375-2.5 8.921875 0 5.421875 3.0625 10.125 3.078125 4.71875 8.984375 7.15625 5.921875 2.4375 13.140625 2.4375 7.953125 0 14.03125-2.5625 6.09375-2.5625 9.359375-7.546875 3.265625-4.96875 3.515625-11.265625l-9.078125-.6875q-.734375 6.78125-4.96875 10.25-4.21875 3.46875-12.46875 3.46875-8.59375 0-12.53125-3.15625-3.921875-3.140625-3.921875-7.578125 0-3.859375 2.78125-6.359375 2.734375-2.484375 14.28125-5.09375 11.546875-2.609375 15.84375-4.5625 6.25-2.890625 9.21875-7.3125 2.984375-4.40625 2.984375-10.171875 0-5.71875-3.265625-10.78125-3.265625-5.046875-9.40625-7.859375-6.125-2.796875-13.78125-2.796875-9.71875 0-16.296875 2.828125-6.5625 2.828125-10.296875 8.515625-3.734375 5.703125-3.921875 12.875z" stroke-linejoin="round"/><path id="l" d="m25.921875 0v63.140625h-23.578125v8.4375h56.734375v-8.4375h-23.671875v-63.140625z" stroke-linejoin="round"/><path id="m" d="m7.90625 0v71.578125h51.765625v-8.4375h-42.28125v-21.921875h39.59375v-8.40625h-39.59375v-24.359375h43.9375v-8.453125z" stroke-linejoin="round"/><path id="n" d="m7.71875 0v71.578125h24.65625q8.34375 0 12.75-1.015625 6.140625-1.421875 10.484375-5.125 5.671875-4.796875 8.46875-12.25 2.8125-7.4375 2.8125-17 0-8.15625-1.90625-14.453125-1.890625-6.296875-4.875-10.4375-2.984375-4.125-6.53125-6.5-3.53125-2.359375-8.53125-3.578125-5-1.21875-11.5-1.21875zm9.46875 8.453125h15.28125q7.078125 0 11.109375 1.3125 4.03125 1.3125 6.421875 3.71875 3.375 3.359375 5.25 9.046875 1.875 5.6875 1.875 13.796875 0 11.234375-3.6875 17.265625-3.6875 6.03125-8.953125 8.078125-3.8125 1.46875-12.25 1.46875h-15.046875z" stroke-linejoin="round"/><path id="o" d="m-1.515625-19.875v6.34375h58.25v-6.34375z" stroke-linejoin="round"/><path id="p" d="m9.328125 0v71.578125h9.46875v-71.578125z" stroke-linejoin="round"/><path id="q" d="m6.59375-19.875v71.734375h8v-6.734375q2.84375 3.953125 6.40625 5.921875 3.5625 1.984375 8.640625 1.984375 6.640625 0 11.71875-3.421875 5.078125-3.421875 7.65625-9.65625 2.59375-6.21875 2.59375-13.640625 0-7.953125-2.859375-14.328125-2.84375-6.375-8.296875-9.765625-5.4375-3.390625-11.453125-3.390625-4.390625 0-7.890625 1.859375-3.484375 1.859375-5.734375 4.6875v-25.25zm7.953125 45.515625q0-10.015625 4.046875-14.796875 4.0625-4.78125 9.828125-4.78125 5.859375 0 10.03125 4.953125 4.171875 4.953125 4.171875 15.359375 0 9.90625-4.078125 14.828125-4.078125 4.9375-9.734375 4.9375-5.625 0-9.953125-5.25-4.3125-5.25-4.3125-15.25z" stroke-linejoin="round"/><path id="r" d="m42.09375 16.703125 9.078125-1.125q-2.140625-7.953125-7.953125-12.359375-5.8125-4.390625-14.84375-4.390625-11.375 0-18.046875 7-6.671875 7.015625-6.671875 19.65625 0 13.09375 6.734375 20.3125 6.75 7.234375 17.484375 7.234375 10.40625 0 17-7.078125 6.59375-7.078125 6.59375-19.921875 0-.78125-.046875-2.34375h-38.671875q.484375-8.546875 4.828125-13.09375 4.34375-4.53125 10.84375-4.53125 4.828125 0 8.25 2.53125 3.421875 2.546875 5.421875 8.109375zm-28.859375 14.203125h28.953125q-.578125 6.546875-3.3125 9.8125-4.203125 5.078125-10.890625 5.078125-6.0625 0-10.1875-4.046875-4.125-4.046875-4.5625-10.84375z" stroke-linejoin="round"/><path id="s" d="m3.328125 25.921875q0 14.40625 8 21.34375 6.6875 5.765625 16.3125 5.765625 10.6875 0 17.46875-7.015625 6.796875-7 6.796875-19.359375 0-10-3-15.75-3-5.734375-8.75-8.90625-5.734375-3.171875-12.515625-3.171875-10.890625 0-17.609375 6.984375-6.703125 6.984375-6.703125 20.109375zm9.03125 0q0-9.953125 4.34375-14.90625 4.34375-4.953125 10.9375-4.953125 6.546875 0 10.890625 4.96875 4.34375 4.984375 4.34375 15.1875 0 9.625-4.375 14.578125-4.375 4.953125-10.859375 4.953125-6.59375 0-10.9375-4.9375-4.34375-4.921875-4.34375-14.890625z" stroke-linejoin="round"/><path id="t" d="m6.5 0v51.859375h7.90625v-7.859375q3.03125 5.515625 5.59375 7.265625 2.5625 1.765625 5.640625 1.765625 4.4375 0 9.03125-2.828125l-3.03125-8.15625q-3.21875 1.90625-6.4375 1.90625-2.890625 0-5.1875-1.734375-2.296875-1.734375-3.265625-4.8125-1.46875-4.6875-1.46875-10.25v-27.15625z" stroke-linejoin="round"/></defs><g stroke-linejoin="round"><path d="m0 720h1080v-720h-1080z" fill="none"/><g><path d="m135 630h837v-543.6h-837z" fill="none" stroke-linejoin="round"/><g stroke-linejoin="round"><g><path clip-path="url(#a)" d="m147.308824 630v-543.6" fill="none" stroke="#ccc" stroke-linecap="round"/><use fill="#262626" transform="matrix(.11 0 0 -.11 144.250308 647.373594)" xlink:href="#b"/></g><g><path clip-path="url(#a)" d="m171.926471 630v-543.6" fill="none" stroke="#ccc" stroke-linecap="round"/><use fill="#262626" transform="matrix(.11 0 0 -.11 168.867955 647.373594)" xlink:href="#c"/></g><g><path clip-path="url(#a)" d="m196.544118 630v-543.6" fill="none" stroke="#ccc" stroke-linecap="round"/><use fill="#262626" transform="matrix(.11 0 0 -.11 193.485602 647.373594)" xlink:href="#d"/></g><g><path clip-path="url(#a)" d="m221.161765 630v-543.6" fill="none" stroke="#ccc" stroke-linecap="round"/><use fill="#262626" transform="matrix(.11 0 0 -.11 218.103249 647.373594)" xlink:href="#e"/></g><g><path clip-path="url(#a)" d="m245.779412 630v-543.6" fill="none" stroke="#ccc" stroke-linecap="round"/><use fill="#262626" transform="matrix(.11 0 0 -.11 242.720896 647.373594)" xlink:href="#f"/></g><g><path clip-path="url(#a)" d="m270.397059 630v-543.6" fill="none" stroke="#ccc" stroke-linecap="round"/><use fill="#262626" transform="matrix(.11 0 0 -.11 267.338543 647.373594)" xlink:href="#g"/></g><g><path clip-path="url(#a)" d="m295.014706 630v-543.6" fill="none" stroke="#ccc" stroke-linecap="round"/><use fill="#262626" transform="matrix(.11 0 0 -.11 291.95619 647.373594)" xlink:href="#h"/></g><g><path clip-path="url(#a)" d="m319.632353 630v-543.6" fill="none" stroke="#ccc" stroke-linecap="round"/><path d="m4.734375 62.203125v8.453125h46.34375v-6.84375q-6.84375-7.265625-13.5625-19.328125-6.703125-12.0625-10.359375-24.8125-2.640625-8.984375-3.375-19.671875h-9.03125q.140625 8.453125 3.3125 20.40625 3.171875 11.96875 9.109375 23.078125 5.9375 11.109375 12.625 18.71875z" fill="#262626" transform="matrix(.11 0 0 -.11 316.573837 647.373594)"/></g><g><path clip-path="url(#a)" d="m344.25 630v-543.6" fill="none" stroke="#ccc" stroke-linecap="round"/><use fill="#262626" transform="matrix(.11 0 0 -.11 341.191484 647.373594)" xlink:href="#i"/></g><g><path clip-path="url(#a)" d="m368.867647 630v-543.6" fill="none" stroke="#ccc" stroke-linecap="round"/><g fill="#262626" transform="matrix(.11 0 0 -.11 362.750616 647.373594)"><use xlink:href="#c"/><use x="55.615234" xlink:href="#b"/></g></g><g><path clip-path="url(#a)" d="m393.485294 630v-543.6" fill="none" stroke="#ccc" stroke-linecap="round"/><g fill="#262626" transform="matrix(.11 0 0 -.11 387.773888 647.373594)"><use xlink:href="#c"/><use x="48.240234" xlink:href="#c"/></g></g><g><path clip-path="url(#a)" d="m418.102941 630v-543.6" fill="none" stroke="#ccc" stroke-linecap="round"/><g fill="#262626" transform="matrix(.11 0 0 -.11 411.98591 647.373594)"><use xlink:href="#c"/><use x="55.615234" xlink:href="#d"/></g></g><g><path clip-path="url(#a)" d="m442.720588 630v-543.6" fill="none" stroke="#ccc" stroke-linecap="round"/><g fill="#262626" transform="matrix(.11 0 0 -.11 436.603557 647.373594)"><use xlink:href="#c"/><use x="55.615234" xlink:href="#f"/></g></g><g><path clip-path="url(#a)" d="m467.338235 630v-543.6" fill="none" stroke="#ccc" stroke-linecap="round"/><g fill="#262626" transform="matrix(.11 0 0 -.11 461.221204 647.373594)"><use xlink:href="#c"/><use x="55.615234" xlink:href="#g"/></g></g><g><path clip-path="url(#a)" d="m491.955882 630v-543.6" fill="none" stroke="#ccc" stroke-linecap="round"/><g fill="#262626" transform="matrix(.11 0 0 -.11 485.838851 647.373594)"><use xlink:href="#d"/><use x="55.615234" xlink:href="#b"/></g></g><g><path clip-path="url(#a)" d="m516.573529 630v-543.6" fill="none" stroke="#ccc" stroke-linecap="round"/><g fill="#262626" transform="matrix(.11 0 0 -.11 510.456498 647.373594)"><use xlink:href="#d"/><use x="55.615234" xlink:href="#e"/></g></g><g><path clip-path="url(#a)" d="m541.191176 630v-543.6" fill="none" stroke="#ccc" stroke-linecap="round"/><g fill="#262626" transform="matrix(.11 0 0 -.11 535.074145 647.373594)"><use xlink:href="#d"/><use x="55.615234" xlink:href="#f"/></g></g><g><path clip-path="url(#a)" d="m565.808824 630v-543.6" fill="none" stroke="#ccc" stroke-linecap="round"/><g fill="#262626" transform="matrix(.11 0 0 -.11 559.691792 647.373594)"><use xlink:href="#d"/><use x="55.615234" xlink:href="#g"/></g></g><g><path clip-path="url(#a)" d="m590.426471 630v-543.6" fill="none" stroke="#ccc" stroke-linecap="round"/><g fill="#262626" transform="matrix(.11 0 0 -.11 584.309439 647.373594)"><use xlink:href="#e"/><use x="55.615234" xlink:href="#b"/></g></g><g><path clip-path="url(#a)" d="m615.044118 630v-543.6" fill="none" stroke="#ccc" stroke-linecap="round"/><g fill="#262626" transform="matrix(.11 0 0 -.11 608.927086 647.373594)"><use xlink:href="#e"/><use x="55.615234" xlink:href="#c"/></g></g><g><path clip-path="url(#a)" d="m639.661765 630v-543.6" fill="none" stroke="#ccc" stroke-linecap="round"/><g fill="#262626" transform="matrix(.11 0 0 -.11 633.544733 647.373594)"><use xlink:href="#e"/><use x="55.615234" xlink:href="#d"/></g></g><g><path clip-path="url(#a)" d="m664.279412 630v-543.6" fill="none" stroke="#ccc" stroke-linecap="round"/><g fill="#262626" transform="matrix(.11 0 0 -.11 658.162381 647.373594)"><use xlink:href="#e"/><use x="55.615234" xlink:href="#e"/></g></g><g><path clip-path="url(#a)" d="m688.897059 630v-543.6" fill="none" stroke="#ccc" stroke-linecap="round"/><g fill="#262626" transform="matrix(.11 0 0 -.11 682.780028 647.373594)"><use xlink:href="#e"/><use x="55.615234" xlink:href="#f"/></g></g><g><path clip-path="url(#a)" d="m713.514706 630v-543.6" fill="none" stroke="#ccc" stroke-linecap="round"/><g fill="#262626" transform="matrix(.11 0 0 -.11 707.397675 647.373594)"><use xlink:href="#e"/><use x="55.615234" xlink:href="#g"/></g></g><g><path clip-path="url(#a)" d="m738.132353 630v-543.6" fill="none" stroke="#ccc" stroke-linecap="round"/><g fill="#262626" transform="matrix(.11 0 0 -.11 732.015322 647.373594)"><use xlink:href="#e"/><use x="55.615234" xlink:href="#h"/></g></g><g><path clip-path="url(#a)" d="m762.75 630v-543.6" fill="none" stroke="#ccc" stroke-linecap="round"/><g fill="#262626" transform="matrix(.11 0 0 -.11 756.632969 647.373594)"><use xlink:href="#e"/><use x="55.615234" xlink:href="#i"/></g></g><g><path clip-path="url(#a)" d="m787.367647 630v-543.6" fill="none" stroke="#ccc" stroke-linecap="round"/><g fill="#262626" transform="matrix(.11 0 0 -.11 781.250616 647.373594)"><use xlink:href="#f"/><use x="55.615234" xlink:href="#b"/></g></g><g><path clip-path="url(#a)" d="m811.985294 630v-543.6" fill="none" stroke="#ccc" stroke-linecap="round"/><g fill="#262626" transform="matrix(.11 0 0 -.11 805.868263 647.373594)"><use xlink:href="#f"/><use x="55.615234" xlink:href="#g"/></g></g><g><path clip-path="url(#a)" d="m836.602941 630v-543.6" fill="none" stroke="#ccc" stroke-linecap="round"/><g fill="#262626" transform="matrix(.11 0 0 -.11 830.48591 647.373594)"><use xlink:href="#g"/><use x="55.615234" xlink:href="#b"/></g></g><g><path clip-path="url(#a)" d="m861.220588 630v-543.6" fill="none" stroke="#ccc" stroke-linecap="round"/><g fill="#262626" transform="matrix(.11 0 0 -.11 855.103557 647.373594)"><use xlink:href="#g"/><use x="55.615234" xlink:href="#g"/></g></g><g><path clip-path="url(#a)" d="m885.838235 630v-543.6" fill="none" stroke="#ccc" stroke-linecap="round"/><g fill="#262626" transform="matrix(.11 0 0 -.11 879.721204 647.373594)"><use xlink:href="#h"/><use x="55.615234" xlink:href="#b"/></g></g><g><path clip-path="url(#a)" d="m910.455882 630v-543.6" fill="none" stroke="#ccc" stroke-linecap="round"/><g fill="#262626" transform="matrix(.11 0 0 -.11 904.338851 647.373594)"><use xlink:href="#h"/><use x="55.615234" xlink:href="#e"/></g></g><g><path clip-path="url(#a)" d="m935.073529 630v-543.6" fill="none" stroke="#ccc" stroke-linecap="round"/><g fill="#262626" transform="matrix(.11 0 0 -.11 928.956498 647.373594)"><use xlink:href="#h"/><use x="55.615234" xlink:href="#g"/></g></g><g><path clip-path="url(#a)" d="m959.691176 630v-543.6" fill="none" stroke="#ccc" stroke-linecap="round"/><g fill="#262626" transform="matrix(.11 0 0 -.11 953.574145 647.373594)"><use xlink:href="#i"/><use x="55.615234" xlink:href="#i"/></g></g><g fill="#262626" transform="matrix(.12 0 0 -.12 486.480937 662.302969)"><use xlink:href="#j"/><path d="m4.828125 34.859375q0 17.828125 9.5625 27.90625 9.578125 10.09375 24.71875 10.09375 9.921875 0 17.875-4.75 7.953125-4.734375 12.125-13.203125 4.1875-8.46875 4.1875-19.21875 0-10.875-4.40625-19.46875-4.390625-8.59375-12.453125-13.015625-8.046875-4.421875-17.375-4.421875-10.109375 0-18.078125 4.875-7.953125 4.890625-12.0625 13.328125-4.09375 8.453125-4.09375 17.875zm9.765625-.140625q0-12.9375 6.953125-20.390625 6.96875-7.4375 17.46875-7.4375 10.6875 0 17.59375 7.515625 6.921875 7.515625 6.921875 21.34375 0 8.734375-2.953125 15.25-2.953125 6.515625-8.65625 10.109375-5.6875 3.59375-12.765625 3.59375-10.046875 0-17.3125-6.921875-7.25-6.90625-7.25-23.0625z" transform="translate(66.699219)"/><use x="144.482422" xlink:href="#k"/><use x="211.181641" xlink:href="#l"/><use x="272.265625" xlink:href="#m"/><use x="338.964844" xlink:href="#n"/><use x="411.181641" xlink:href="#o"/><use x="466.796875" xlink:href="#k"/><use x="533.496094" xlink:href="#j"/><use x="600.195312" xlink:href="#m"/><use x="666.894531" xlink:href="#m"/><use x="733.59375" xlink:href="#n"/><use x="805.810547" xlink:href="#o"/><path d="m7.328125 0v71.578125h9.46875v-63.125h35.25v-8.453125z" transform="translate(861.425781)"/><use x="917.041016" xlink:href="#p"/><path d="m7.421875 0v71.578125h14.265625l16.9375-50.671875q2.34375-7.09375 3.421875-10.609375 1.21875 3.90625 3.796875 11.484375l17.140625 49.796875h12.75v-71.578125h-9.125v59.90625l-20.8125-59.90625h-8.546875l-20.703125 60.9375v-60.9375z" transform="translate(944.824219)"/><use x="1028.125" xlink:href="#p"/><use x="1055.908203" xlink:href="#l"/></g></g><g stroke-linejoin="round"><g><path clip-path="url(#a)" d="m135 630h837" fill="none" stroke="#ccc" stroke-linecap="round"/><use fill="#262626" transform="matrix(.11 0 0 -.11 119.382969 633.936797)" xlink:href="#b"/></g><g><path clip-path="url(#a)" d="m135 548.917867h837" fill="none" stroke="#ccc" stroke-linecap="round"/><g fill="#262626" transform="matrix(.11 0 0 -.11 94.914844 552.854664)"><use xlink:href="#g"/><use x="55.615234" xlink:href="#b"/><use x="111.230469" xlink:href="#b"/><use x="166.845703" xlink:href="#b"/><use x="222.460938" xlink:href="#b"/></g></g><g><path clip-path="url(#a)" d="m135 467.835734h837" fill="none" stroke="#ccc" stroke-linecap="round"/><g fill="#262626" transform="matrix(.11 0 0 -.11 88.797812 471.77253)"><use xlink:href="#c"/><use x="55.615234" xlink:href="#b"/><use x="111.230469" xlink:href="#b"/><use x="166.845703" xlink:href="#b"/><use x="222.460938" xlink:href="#b"/><use x="278.076172" xlink:href="#b"/></g></g><g><path clip-path="url(#a)" d="m135 386.7536h837" fill="none" stroke="#ccc" stroke-linecap="round"/><g fill="#262626" transform="matrix(.11 0 0 -.11 88.797812 390.690397)"><use xlink:href="#c"/><use x="55.615234" xlink:href="#g"/><use x="111.230469" xlink:href="#b"/><use x="166.845703" xlink:href="#b"/><use x="222.460938" xlink:href="#b"/><use x="278.076172" xlink:href="#b"/></g></g><g><path clip-path="url(#a)" d="m135 305.671467h837" fill="none" stroke="#ccc" stroke-linecap="round"/><g fill="#262626" transform="matrix(.11 0 0 -.11 88.797812 309.608264)"><use xlink:href="#d"/><use x="55.615234" xlink:href="#b"/><use x="111.230469" xlink:href="#b"/><use x="166.845703" xlink:href="#b"/><use x="222.460938" xlink:href="#b"/><use x="278.076172" xlink:href="#b"/></g></g><g><path clip-path="url(#a)" d="m135 224.589334h837" fill="none" stroke="#ccc" stroke-linecap="round"/><g fill="#262626" transform="matrix(.11 0 0 -.11 88.797812 228.526131)"><use xlink:href="#d"/><use x="55.615234" xlink:href="#g"/><use x="111.230469" xlink:href="#b"/><use x="166.845703" xlink:href="#b"/><use x="222.460938" xlink:href="#b"/><use x="278.076172" xlink:href="#b"/></g></g><g><path clip-path="url(#a)" d="m135 143.507201h837" fill="none" stroke="#ccc" stroke-linecap="round"/><g fill="#262626" transform="matrix(.11 0 0 -.11 88.797812 147.443997)"><use xlink:href="#e"/><use x="55.615234" xlink:href="#b"/><use x="111.230469" xlink:href="#b"/><use x="166.845703" xlink:href="#b"/><use x="222.460938" xlink:href="#b"/><use x="278.076172" xlink:href="#b"/></g></g></g><g stroke-linejoin="miter"><path clip-path="url(#a)" d="m141.154412 630h12.308823v-9.473636h-12.308823z" fill="#4c72b0" stroke="#fff"/><path clip-path="url(#a)" d="m165.772059 630h12.308823v-.045406h-12.308823z" fill="#4c72b0" stroke="#fff"/><path clip-path="url(#a)" d="m190.389706 630h12.308823v-.024325h-12.308823z" fill="#4c72b0" stroke="#fff"/><path clip-path="url(#a)" d="m215.007353 630h12.308823v-.144326h-12.308823z" fill="#4c72b0" stroke="#fff"/><path clip-path="url(#a)" d="m239.625 630h12.308824v-.001622h-12.308824z" fill="#4c72b0" stroke="#fff"/><path clip-path="url(#a)" d="m264.242647 630h12.308824v-3.976268h-12.308824z" fill="#4c72b0" stroke="#fff"/><path clip-path="url(#a)" d="m288.860294 630h12.308824v-.008108h-12.308824z" fill="#4c72b0" stroke="#fff"/><path clip-path="url(#a)" d="m313.477941 630h12.308824v-.003243h-12.308824z" fill="#4c72b0" stroke="#fff"/><path clip-path="url(#a)" d="m338.095588 630h12.308824v-.136218h-12.308824z" fill="#4c72b0" stroke="#fff"/><path clip-path="url(#a)" d="m362.713235 630h12.308824v-9.256336h-12.308824z" fill="#4c72b0" stroke="#fff"/><path clip-path="url(#a)" d="m387.330882 630h12.308824v-.00973h-12.308824z" fill="#4c72b0" stroke="#fff"/><path clip-path="url(#a)" d="m411.948529 630h12.308824v-.003243h-12.308824z" fill="#4c72b0" stroke="#fff"/><path clip-path="url(#a)" d="m436.566176 630h12.308824v-.004865h-12.308824z" fill="#4c72b0" stroke="#fff"/><path clip-path="url(#a)" d="m461.183824 630h12.308823v-17.403469h-12.308823z" fill="#4c72b0" stroke="#fff"/><path clip-path="url(#a)" d="m485.801471 630h12.308823v-20.064585h-12.308823z" fill="#4c72b0" stroke="#fff"/><path clip-path="url(#a)" d="m510.419118 630h12.308823v-.001622h-12.308823z" fill="#4c72b0" stroke="#fff"/><path clip-path="url(#a)" d="m535.036765 630h12.308823v-.008108h-12.308823z" fill="#4c72b0" stroke="#fff"/><path clip-path="url(#a)" d="m559.654412 630h12.308823v-36.016684h-12.308823z" fill="#4c72b0" stroke="#fff"/><path clip-path="url(#a)" d="m584.272059 630h12.308823v-517.714286h-12.308823z" fill="#4c72b0" stroke="#fff"/><path clip-path="url(#a)" d="m608.889706 630h12.308823v-.003243h-12.308823z" fill="#4c72b0" stroke="#fff"/><path clip-path="url(#a)" d="m633.507353 630h12.308823v-.017838h-12.308823z" fill="#4c72b0" stroke="#fff"/><path clip-path="url(#a)" d="m658.125 630h12.308824v-.011351h-12.308824z" fill="#4c72b0" stroke="#fff"/><path clip-path="url(#a)" d="m682.742647 630h12.308824v-.006487h-12.308824z" fill="#4c72b0" stroke="#fff"/><path clip-path="url(#a)" d="m707.360294 630h12.308824v-50.990932h-12.308824z" fill="#4c72b0" stroke="#fff"/><path clip-path="url(#a)" d="m731.977941 630h12.308824v-.001622h-12.308824z" fill="#4c72b0" stroke="#fff"/><path clip-path="url(#a)" d="m756.595588 630h12.308824v-.063244h-12.308824z" fill="#4c72b0" stroke="#fff"/><path clip-path="url(#a)" d="m781.213235 630h12.308824v-6.948739h-12.308824z" fill="#4c72b0" stroke="#fff"/><path clip-path="url(#a)" d="m805.830882 630h12.308824v-4.221136h-12.308824z" fill="#4c72b0" stroke="#fff"/><path clip-path="url(#a)" d="m830.448529 630h12.308824v-.09892h-12.308824z" fill="#4c72b0" stroke="#fff"/><path clip-path="url(#a)" d="m855.066176 630h12.308824v-.449195h-12.308824z" fill="#4c72b0" stroke="#fff"/><path clip-path="url(#a)" d="m879.683824 630h12.308823v-.02919h-12.308823z" fill="#4c72b0" stroke="#fff"/><path clip-path="url(#a)" d="m904.301471 630h12.308823v-.003243h-12.308823z" fill="#4c72b0" stroke="#fff"/><path clip-path="url(#a)" d="m928.919118 630h12.308823v-.004865h-12.308823z" fill="#4c72b0" stroke="#fff"/><path clip-path="url(#a)" d="m953.536765 630h12.308823v-.126488h-12.308823z" fill="#4c72b0" stroke="#fff"/><path d="m135 630v-543.6" fill="none" stroke="#ccc" stroke-linecap="square" stroke-width="1.25"/><path d="m972 630v-543.6" fill="none" stroke="#ccc" stroke-linecap="square" stroke-width="1.25"/><path d="m135 630h837" fill="none" stroke="#ccc" stroke-linecap="square" stroke-width="1.25"/><path d="m135 86.4h837" fill="none" stroke="#ccc" stroke-linecap="square" stroke-width="1.25"/></g><g fill="#262626" stroke-linejoin="round" transform="matrix(.12 0 0 -.12 489.807187 80.4)"><use xlink:href="#l"/><path d="m6.203125-19.96875-.984375 8.25q2.890625-.78125 5.03125-.78125 2.9375 0 4.6875.984375 1.765625.96875 2.890625 2.71875.828125 1.328125 2.6875 6.546875.234375.734375.78125 2.15625l-19.6875 51.953125h9.46875l10.796875-30.03125q2.09375-5.71875 3.765625-12.015625 1.515625 6.0625 3.609375 11.8125l11.078125 30.234375h8.796875l-19.734375-52.734375q-3.171875-8.546875-4.921875-11.765625-2.34375-4.359375-5.375-6.375-3.03125-2.03125-7.234375-2.03125-2.53125 0-5.65625 1.078125z" transform="translate(55.583984)"/><use x="105.583984" xlink:href="#q"/><use x="161.199219" xlink:href="#r"/><use x="244.597656" xlink:href="#s"/><path d="m8.6875 0v45.015625h-7.765625v6.84375h7.765625v5.515625q0 5.21875.9375 7.765625 1.265625 3.421875 4.453125 5.53125 3.203125 2.125 8.96875 2.125 3.71875 0 8.203125-.875l-1.3125-7.65625q-2.734375.484375-5.1875.484375-4 0-5.65625-1.71875-1.65625-1.703125-1.65625-6.390625v-4.78125h10.109375v-6.84375h-10.109375v-45.015625z" transform="translate(300.212891)"/><use x="355.779297" xlink:href="#t"/><use x="389.080078" xlink:href="#r"/><use x="444.695312" xlink:href="#q"/><use x="500.310547" xlink:href="#s"/><use x="555.925781" xlink:href="#t"/><path d="m25.78125 7.859375 1.265625-7.765625q-3.703125-.78125-6.640625-.78125-4.78125 0-7.421875 1.515625-2.625 1.515625-3.703125 3.984375-1.078125 2.46875-1.078125 10.375v29.828125h-6.4375v6.84375h6.4375v12.84375l8.734375 5.265625v-18.109375h8.84375v-6.84375h-8.84375v-30.3125q0-3.765625.46875-4.84375.46875-1.0625 1.515625-1.703125 1.046875-.640625 3-.640625 1.46875 0 3.859375.34375z" transform="translate(589.226562)"/><use x="644.792969" xlink:href="#q"/><use x="700.408203" xlink:href="#r"/><use x="756.023438" xlink:href="#t"/><path d="m40.4375 19 8.640625-1.125q-1.421875-8.9375-7.265625-14-5.828125-5.046875-14.328125-5.046875-10.640625 0-17.109375 6.953125-6.46875 6.96875-6.46875 19.953125 0 8.390625 2.78125 14.6875 2.78125 6.3125 8.46875 9.453125 5.6875 3.15625 12.390625 3.15625 8.4375 0 13.8125-4.28125 5.375-4.265625 6.890625-12.125l-8.546875-1.328125q-1.21875 5.234375-4.328125 7.859375-3.09375 2.640625-7.5 2.640625-6.640625 0-10.796875-4.765625-4.140625-4.75-4.140625-15.046875 0-10.453125 4-15.1875 4.015625-4.734375 10.453125-4.734375 5.171875 0 8.640625 3.171875 3.46875 3.171875 4.40625 9.765625z" transform="translate(817.107422)"/><use x="867.107422" xlink:href="#t"/><path d="m40.4375 6.390625q-4.890625-4.140625-9.40625-5.859375-4.515625-1.703125-9.6875-1.703125-8.546875 0-13.140625 4.171875-4.59375 4.171875-4.59375 10.671875 0 3.8125 1.734375 6.953125 1.734375 3.15625 4.546875 5.0625 2.8125 1.90625 6.328125 2.875 2.578125.6875 7.8125 1.328125 10.640625 1.265625 15.671875 3.015625.046875 1.8125.046875 2.296875 0 5.375-2.5 7.578125-3.359375 2.96875-10 2.96875-6.203125 0-9.15625-2.171875-2.953125-2.171875-4.375-7.6875l-8.59375 1.171875q1.171875 5.515625 3.859375 8.90625 2.6875 3.390625 7.765625 5.21875 5.078125 1.84375 11.765625 1.84375 6.640625 0 10.78125-1.5625 4.15625-1.5625 6.109375-3.9375 1.953125-2.359375 2.734375-5.984375.4375-2.234375.4375-8.09375v-11.71875q0-12.265625.5625-15.515625.5625-3.234375 2.234375-6.21875h-9.1875q-1.359375 2.734375-1.75 6.390625zm-.734375 19.640625q-4.796875-1.953125-14.359375-3.328125-5.421875-.78125-7.671875-1.765625-2.234375-.96875-3.46875-2.84375-1.21875-1.875-1.21875-4.171875 0-3.515625 2.65625-5.859375 2.671875-2.34375 7.796875-2.34375 5.078125 0 9.03125 2.21875 3.953125 2.21875 5.8125 6.078125 1.421875 2.984375 1.421875 8.78125z" transform="translate(900.408203)"/><path d="m3.078125 15.484375 8.6875 1.359375q.734375-5.21875 4.078125-8 3.34375-2.78125 9.359375-2.78125 6.046875 0 8.96875 2.453125 2.9375 2.46875 2.9375 5.796875 0 2.96875-2.59375 4.6875-1.796875 1.171875-8.984375 2.96875-9.65625 2.453125-13.390625 4.234375-3.734375 1.78125-5.671875 4.921875-1.921875 3.15625-1.921875 6.96875 0 3.453125 1.578125 6.40625 1.59375 2.96875 4.328125 4.921875 2.046875 1.5 5.578125 2.546875 3.546875 1.0625 7.609375 1.0625 6.09375 0 10.703125-1.765625 4.625-1.75 6.8125-4.765625 2.203125-3 3.03125-8.015625l-8.59375-1.171875q-.578125 4-3.390625 6.234375-2.8125 2.25-7.9375 2.25-6.046875 0-8.640625-2-2.59375-2-2.59375-4.6875 0-1.703125 1.078125-3.078125 1.078125-1.40625 3.375-2.34375 1.3125-.484375 7.765625-2.234375 9.328125-2.5 13-4.09375 3.6875-1.578125 5.78125-4.609375 2.109375-3.015625 2.109375-7.515625 0-4.390625-2.5625-8.28125-2.5625-3.875-7.40625-6-4.828125-2.125-10.921875-2.125-10.109375 0-15.40625 4.203125-5.296875 4.203125-6.765625 12.453125z" transform="translate(956.023438)"/><path d="m6.59375 0v71.578125h8.78125v-25.671875q6.15625 7.125 15.53125 7.125 5.765625 0 10.015625-2.28125 4.25-2.265625 6.078125-6.265625 1.828125-4 1.828125-11.625v-32.859375h-8.78125v32.859375q0 6.59375-2.859375 9.59375-2.859375 3-8.078125 3-3.90625 0-7.359375-2.03125-3.4375-2.015625-4.90625-5.484375-1.46875-3.46875-1.46875-9.5625v-28.375z" transform="translate(1006.023438)"/></g></g></g></svg>